<?xml version="1.0" encoding="UTF-8" standalone="yes"?><svg xmlns="http://www.w3.org/2000/svg" xmlns:xlink="http://www.w3.org/1999/xlink" height="1222px" style="width:1053px;height:1222px;" version="1.1" viewBox="0 0 1053 1222" width="1053px"><defs><filter height="300%" id="f1" width="300%" x="-1" y="-1"><feGaussianBlur result="blurOut" stdDeviation="2.0"/><feColorMatrix in="blurOut" result="blurOut2" type="matrix" values="0 0 0 0 0 0 0 0 0 0 0 0 0 0 0 0 0 0 .4 0"/><feOffset dx="4.0" dy="4.0" in="blurOut2" result="blurOut3"/><feBlend in="SourceGraphic" in2="blurOut3" mode="normal"/></filter></defs><g><rect fill="#FFFFFF" filter="url(#f1)" height="34.3105" style="stroke: #A80036; stroke-width: 1.0;" width="10" x="397.5" y="580.6309"/><rect fill="#FFFFFF" filter="url(#f1)" height="69.6211" style="stroke: #A80036; stroke-width: 1.0;" width="10" x="397.5" y="957.7363"/><rect fill="#FFFFFF" filter="url(#f1)" height="34.3105" style="stroke: #A80036; stroke-width: 1.0;" width="10" x="478" y="691.5625"/><rect fill="#FFFFFF" filter="url(#f1)" height="69.6211" style="stroke: #A80036; stroke-width: 1.0;" width="10" x="478" y="846.8047"/><line style="stroke: #A80036; stroke-width: 1.0; stroke-dasharray: 5.0,5.0;" x1="26" x2="26" y1="86.4883" y2="1138.2891"/><line style="stroke: #A80036; stroke-width: 1.0; stroke-dasharray: 5.0,5.0;" x1="402.5" x2="402.5" y1="86.4883" y2="1138.2891"/><line style="stroke: #A80036; stroke-width: 1.0; stroke-dasharray: 5.0,5.0;" x1="482.5" x2="482.5" y1="86.4883" y2="1138.2891"/><text fill="#000000" font-family="sans-serif" font-size="14" lengthAdjust="spacingAndGlyphs" textLength="31" x="8" y="83.5352">Host</text><ellipse cx="26.5" cy="13" fill="#FEFECE" filter="url(#f1)" rx="8" ry="8" style="stroke: #A80036; stroke-width: 2.0;"/><path d="M26.5,21 L26.5,48 M13.5,29 L39.5,29 M26.5,48 L13.5,63 M26.5,48 L39.5,63 " fill="#FEFECE" filter="url(#f1)" style="stroke: #A80036; stroke-width: 2.0;"/><text fill="#000000" font-family="sans-serif" font-size="14" lengthAdjust="spacingAndGlyphs" textLength="31" x="8" y="1150.8242">Host</text><ellipse cx="26.5" cy="1163.7773" fill="#FEFECE" filter="url(#f1)" rx="8" ry="8" style="stroke: #A80036; stroke-width: 2.0;"/><path d="M26.5,1171.7773 L26.5,1198.7773 M13.5,1179.7773 L39.5,1179.7773 M26.5,1198.7773 L13.5,1213.7773 M26.5,1198.7773 L39.5,1213.7773 " fill="#FEFECE" filter="url(#f1)" style="stroke: #A80036; stroke-width: 2.0;"/><text fill="#000000" font-family="sans-serif" font-size="14" lengthAdjust="spacingAndGlyphs" textLength="74" x="362.5" y="83.5352">transfer.sh</text><path d="M384.5,38 C384.5,28 402.5,28 402.5,28 C402.5,28 420.5,28 420.5,38 L420.5,60 C420.5,70 402.5,70 402.5,70 C402.5,70 384.5,70 384.5,60 L384.5,38 " fill="#FEFECE" filter="url(#f1)" style="stroke: #A80036; stroke-width: 1.5;"/><path d="M384.5,38 C384.5,48 402.5,48 402.5,48 C402.5,48 420.5,48 420.5,38 " fill="none" style="stroke: #A80036; stroke-width: 1.5;"/><text fill="#000000" font-family="sans-serif" font-size="14" lengthAdjust="spacingAndGlyphs" textLength="74" x="362.5" y="1150.8242">transfer.sh</text><path d="M384.5,1163.7773 C384.5,1153.7773 402.5,1153.7773 402.5,1153.7773 C402.5,1153.7773 420.5,1153.7773 420.5,1163.7773 L420.5,1185.7773 C420.5,1195.7773 402.5,1195.7773 402.5,1195.7773 C402.5,1195.7773 384.5,1195.7773 384.5,1185.7773 L384.5,1163.7773 " fill="#FEFECE" filter="url(#f1)" style="stroke: #A80036; stroke-width: 1.5;"/><path d="M384.5,1163.7773 C384.5,1173.7773 402.5,1173.7773 402.5,1173.7773 C402.5,1173.7773 420.5,1173.7773 420.5,1163.7773 " fill="none" style="stroke: #A80036; stroke-width: 1.5;"/><text fill="#000000" font-family="sans-serif" font-size="14" lengthAdjust="spacingAndGlyphs" textLength="55" x="452.5" y="83.5352">cl1p.net</text><path d="M465,38 C465,28 483,28 483,28 C483,28 501,28 501,38 L501,60 C501,70 483,70 483,70 C483,70 465,70 465,60 L465,38 " fill="#FEFECE" filter="url(#f1)" style="stroke: #A80036; stroke-width: 1.5;"/><path d="M465,38 C465,48 483,48 483,48 C483,48 501,48 501,38 " fill="none" style="stroke: #A80036; stroke-width: 1.5;"/><text fill="#000000" font-family="sans-serif" font-size="14" lengthAdjust="spacingAndGlyphs" textLength="55" x="452.5" y="1150.8242">cl1p.net</text><path d="M465,1163.7773 C465,1153.7773 483,1153.7773 483,1153.7773 C483,1153.7773 501,1153.7773 501,1163.7773 L501,1185.7773 C501,1195.7773 483,1195.7773 483,1195.7773 C483,1195.7773 465,1195.7773 465,1185.7773 L465,1163.7773 " fill="#FEFECE" filter="url(#f1)" style="stroke: #A80036; stroke-width: 1.5;"/><path d="M465,1163.7773 C465,1173.7773 483,1173.7773 483,1173.7773 C483,1173.7773 501,1173.7773 501,1163.7773 " fill="none" style="stroke: #A80036; stroke-width: 1.5;"/><rect fill="#FFFFFF" filter="url(#f1)" height="34.3105" style="stroke: #A80036; stroke-width: 1.0;" width="10" x="397.5" y="580.6309"/><rect fill="#FFFFFF" filter="url(#f1)" height="69.6211" style="stroke: #A80036; stroke-width: 1.0;" width="10" x="397.5" y="957.7363"/><rect fill="#FFFFFF" filter="url(#f1)" height="34.3105" style="stroke: #A80036; stroke-width: 1.0;" width="10" x="478" y="691.5625"/><rect fill="#FFFFFF" filter="url(#f1)" height="69.6211" style="stroke: #A80036; stroke-width: 1.0;" width="10" x="478" y="846.8047"/><polygon fill="#FBFB77" filter="url(#f1)" points="488,101.4883,488,417.4883,1039,417.4883,1039,111.4883,1029,101.4883,488,101.4883" style="stroke: #A80036; stroke-width: 1.0;"/><line style="stroke: #A80036; stroke-width: 1.0;" x1="1029" x2="1029" y1="101.4883" y2="111.4883"/><line style="stroke: #A80036; stroke-width: 1.0;" x1="1039" x2="1029" y1="111.4883" y2="111.4883"/><text fill="#000000" font-family="sans-serif" font-size="13" lengthAdjust="spacingAndGlyphs" textLength="12" x="494" y="119.0566">1.</text><text fill="#000000" font-family="sans-serif" font-size="13" lengthAdjust="spacingAndGlyphs" textLength="54" x="510" y="119.0566">Fnctions</text><ellipse cx="499.5" cy="129.6094" fill="#000000" rx="2.5" ry="2.5" style="stroke: #000000; stroke-width: 0.0;"/><text fill="#000000" font-family="sans-serif" font-size="13" lengthAdjust="spacingAndGlyphs" textLength="495" x="505" y="134.3672">encode(key, data) -- encode data with given key with AES256-CBC and gzip it.</text><ellipse cx="499.5" cy="144.9199" fill="#000000" rx="2.5" ry="2.5" style="stroke: #000000; stroke-width: 0.0;"/><text fill="#000000" font-family="sans-serif" font-size="13" lengthAdjust="spacingAndGlyphs" textLength="519" x="505" y="149.6777">decode(key, data) -- decode data with given key with AES256-CBC and un-gzip it.</text><ellipse cx="499.5" cy="160.2305" fill="#000000" rx="2.5" ry="2.5" style="stroke: #000000; stroke-width: 0.0;"/><text fill="#000000" font-family="sans-serif" font-size="13" lengthAdjust="spacingAndGlyphs" textLength="320" x="505" y="164.9883">hash(data) -- Create message digest with SHA256.</text><text fill="#000000" font-family="sans-serif" font-size="13" lengthAdjust="spacingAndGlyphs" textLength="0" x="498" y="180.2988"/><text fill="#000000" font-family="sans-serif" font-size="13" lengthAdjust="spacingAndGlyphs" textLength="12" x="494" y="195.6094">2.</text><text fill="#000000" font-family="sans-serif" font-size="13" lengthAdjust="spacingAndGlyphs" textLength="57" x="510" y="195.6094">Variables</text><ellipse cx="499.5" cy="206.1621" fill="#000000" rx="2.5" ry="2.5" style="stroke: #000000; stroke-width: 0.0;"/><text fill="#000000" font-family="sans-serif" font-size="13" lengthAdjust="spacingAndGlyphs" textLength="122" x="505" y="210.9199">ID ... given by user.</text><ellipse cx="499.5" cy="221.4727" fill="#000000" rx="2.5" ry="2.5" style="stroke: #000000; stroke-width: 0.0;"/><text fill="#000000" font-family="sans-serif" font-size="13" lengthAdjust="spacingAndGlyphs" textLength="177" x="505" y="226.2305">PASSWORD ... given by user.</text><ellipse cx="499.5" cy="236.7832" fill="#000000" rx="2.5" ry="2.5" style="stroke: #000000; stroke-width: 0.0;"/><text fill="#000000" font-family="sans-serif" font-size="13" lengthAdjust="spacingAndGlyphs" textLength="130" x="505" y="241.541">SALT1 ... something.</text><ellipse cx="499.5" cy="252.0938" fill="#000000" rx="2.5" ry="2.5" style="stroke: #000000; stroke-width: 0.0;"/><text fill="#000000" font-family="sans-serif" font-size="13" lengthAdjust="spacingAndGlyphs" textLength="130" x="505" y="256.8516">SALT2 ... something.</text><text fill="#000000" font-family="sans-serif" font-size="13" lengthAdjust="spacingAndGlyphs" textLength="0" x="498" y="272.1621"/><ellipse cx="499.5" cy="282.7148" fill="#000000" rx="2.5" ry="2.5" style="stroke: #000000; stroke-width: 0.0;"/><text fill="#000000" font-family="sans-serif" font-size="13" lengthAdjust="spacingAndGlyphs" textLength="186" x="505" y="287.4727">DATA ... Data to be delivered.</text><ellipse cx="499.5" cy="298.0254" fill="#000000" rx="2.5" ry="2.5" style="stroke: #000000; stroke-width: 0.0;"/><text fill="#000000" font-family="sans-serif" font-size="13" lengthAdjust="spacingAndGlyphs" textLength="369" x="505" y="302.7832">enc-SOMETHING ... encrypted SOMETHING (i,e enc-DATA).</text><text fill="#000000" font-family="sans-serif" font-size="13" lengthAdjust="spacingAndGlyphs" textLength="0" x="498" y="318.0938"/><ellipse cx="499.5" cy="328.6465" fill="#000000" rx="2.5" ry="2.5" style="stroke: #000000; stroke-width: 0.0;"/><text fill="#000000" font-family="sans-serif" font-size="13" lengthAdjust="spacingAndGlyphs" textLength="212" x="505" y="333.4043">ID_TRANSFER = hash(ID + SALT1)</text><ellipse cx="499.5" cy="343.957" fill="#000000" rx="2.5" ry="2.5" style="stroke: #000000; stroke-width: 0.0;"/><text fill="#000000" font-family="sans-serif" font-size="13" lengthAdjust="spacingAndGlyphs" textLength="322" x="505" y="348.7148">PASSWORD_TRANSFER = hash(PASSWORD + SALT1)</text><text fill="#000000" font-family="sans-serif" font-size="13" lengthAdjust="spacingAndGlyphs" textLength="0" x="498" y="364.0254"/><ellipse cx="499.5" cy="374.5781" fill="#000000" rx="2.5" ry="2.5" style="stroke: #000000; stroke-width: 0.0;"/><text fill="#000000" font-family="sans-serif" font-size="13" lengthAdjust="spacingAndGlyphs" textLength="175" x="505" y="379.3359">ID_CLIP = hash(ID + SALT2)</text><ellipse cx="499.5" cy="389.8887" fill="#000000" rx="2.5" ry="2.5" style="stroke: #000000; stroke-width: 0.0;"/><text fill="#000000" font-family="sans-serif" font-size="13" lengthAdjust="spacingAndGlyphs" textLength="317" x="505" y="394.6465">PASSWORD_CLIP = hash(PASSWORD + ID + SALT2)</text><text fill="#000000" font-family="sans-serif" font-size="13" lengthAdjust="spacingAndGlyphs" textLength="0" x="498" y="409.957"/><rect fill="#EEEEEE" filter="url(#f1)" height="3" style="stroke: #EEEEEE; stroke-width: 1.0;" width="1045" x="3" y="447.3545"/><line style="stroke: #000000; stroke-width: 1.0;" x1="3" x2="1048" y1="447.3545" y2="447.3545"/><line style="stroke: #000000; stroke-width: 1.0;" x1="3" x2="1048" y1="450.3545" y2="450.3545"/><rect fill="#EEEEEE" filter="url(#f1)" height="23.3105" style="stroke: #000000; stroke-width: 2.0;" width="105" x="473" y="436.6992"/><text fill="#000000" font-family="sans-serif" font-size="13" font-weight="bold" lengthAdjust="spacingAndGlyphs" textLength="87" x="479" y="453.2676">ttcopy (start)</text><line style="stroke: #A80036; stroke-width: 1.0;" x1="26.5" x2="68.5" y1="491.3203" y2="491.3203"/><line style="stroke: #A80036; stroke-width: 1.0;" x1="68.5" x2="68.5" y1="491.3203" y2="504.3203"/><line style="stroke: #A80036; stroke-width: 1.0;" x1="27.5" x2="68.5" y1="504.3203" y2="504.3203"/><polygon fill="#A80036" points="37.5,500.3203,27.5,504.3203,37.5,508.3203,33.5,504.3203" style="stroke: #A80036; stroke-width: 1.0;"/><text fill="#000000" font-family="sans-serif" font-size="13" lengthAdjust="spacingAndGlyphs" textLength="78" x="33.5" y="486.5781">create DATA</text><line style="stroke: #A80036; stroke-width: 1.0;" x1="26.5" x2="68.5" y1="533.6309" y2="533.6309"/><line style="stroke: #A80036; stroke-width: 1.0;" x1="68.5" x2="68.5" y1="533.6309" y2="546.6309"/><line style="stroke: #A80036; stroke-width: 1.0;" x1="27.5" x2="68.5" y1="546.6309" y2="546.6309"/><polygon fill="#A80036" points="37.5,542.6309,27.5,546.6309,37.5,550.6309,33.5,546.6309" style="stroke: #A80036; stroke-width: 1.0;"/><text fill="#000000" font-family="sans-serif" font-size="13" lengthAdjust="spacingAndGlyphs" textLength="325" x="33.5" y="528.8887">enc-DATA = encode(PASSWORD_TRANSFER , DATA)</text><polygon fill="#A80036" points="385.5,576.6309,395.5,580.6309,385.5,584.6309,389.5,580.6309" style="stroke: #A80036; stroke-width: 1.0;"/><line style="stroke: #A80036; stroke-width: 1.0;" x1="26.5" x2="391.5" y1="580.6309" y2="580.6309"/><text fill="#000000" font-family="sans-serif" font-size="13" lengthAdjust="spacingAndGlyphs" textLength="66" x="33.5" y="576.1992">enc-DATA</text><polygon fill="#FBFB77" filter="url(#f1)" points="412,559.6309,412,584.6309,629,584.6309,629,569.6309,619,559.6309,412,559.6309" style="stroke: #A80036; stroke-width: 1.0;"/><line style="stroke: #A80036; stroke-width: 1.0;" x1="619" x2="619" y1="559.6309" y2="569.6309"/><line style="stroke: #A80036; stroke-width: 1.0;" x1="629" x2="619" y1="569.6309" y2="569.6309"/><text fill="#000000" font-family="sans-serif" font-size="13" lengthAdjust="spacingAndGlyphs" textLength="196" x="418" y="577.1992">URL : transfer.sh/ID_TRANSFER</text><polygon fill="#A80036" points="37.5,610.9414,27.5,614.9414,37.5,618.9414,33.5,614.9414" style="stroke: #A80036; stroke-width: 1.0;"/><line style="stroke: #A80036; stroke-width: 1.0;" x1="31.5" x2="401.5" y1="614.9414" y2="614.9414"/><text fill="#000000" font-family="sans-serif" font-size="13" lengthAdjust="spacingAndGlyphs" textLength="73" x="43.5" y="610.5098">TRANS_URL</text><line style="stroke: #A80036; stroke-width: 1.0;" x1="26.5" x2="68.5" y1="644.5625" y2="644.5625"/><line style="stroke: #A80036; stroke-width: 1.0;" x1="68.5" x2="68.5" y1="644.5625" y2="657.5625"/><line style="stroke: #A80036; stroke-width: 1.0;" x1="27.5" x2="68.5" y1="657.5625" y2="657.5625"/><polygon fill="#A80036" points="37.5,653.5625,27.5,657.5625,37.5,661.5625,33.5,657.5625" style="stroke: #A80036; stroke-width: 1.0;"/><text fill="#000000" font-family="sans-serif" font-size="13" lengthAdjust="spacingAndGlyphs" textLength="362" x="33.5" y="639.8203">enc-TRANS_URL = encode(PASSWORD_CLIP , TRANS_URL)</text><polygon fill="#A80036" points="466,687.5625,476,691.5625,466,695.5625,470,691.5625" style="stroke: #A80036; stroke-width: 1.0;"/><line style="stroke: #A80036; stroke-width: 1.0;" x1="26.5" x2="472" y1="691.5625" y2="691.5625"/><text fill="#000000" font-family="sans-serif" font-size="13" lengthAdjust="spacingAndGlyphs" textLength="103" x="33.5" y="687.1309">enc-TRANS_URL</text><polygon fill="#FBFB77" filter="url(#f1)" points="493,670.5625,493,695.5625,700,695.5625,700,680.5625,690,670.5625,493,670.5625" style="stroke: #A80036; stroke-width: 1.0;"/><line style="stroke: #A80036; stroke-width: 1.0;" x1="690" x2="690" y1="670.5625" y2="680.5625"/><line style="stroke: #A80036; stroke-width: 1.0;" x1="700" x2="690" y1="680.5625" y2="680.5625"/><text fill="#000000" font-family="sans-serif" font-size="13" lengthAdjust="spacingAndGlyphs" textLength="186" x="499" y="688.1309">URL : http://cl1p.net/ID_CLIP</text><polygon fill="#A80036" points="37.5,721.873,27.5,725.873,37.5,729.873,33.5,725.873" style="stroke: #A80036; stroke-width: 1.0;"/><line style="stroke: #A80036; stroke-width: 1.0;" x1="31.5" x2="482" y1="725.873" y2="725.873"/><text fill="#000000" font-family="sans-serif" font-size="13" lengthAdjust="spacingAndGlyphs" textLength="91" x="43.5" y="721.4414">(HTTP 200 OK)</text><rect fill="#EEEEEE" filter="url(#f1)" height="3" style="stroke: #EEEEEE; stroke-width: 1.0;" width="1045" x="3" y="754.8389"/><line style="stroke: #000000; stroke-width: 1.0;" x1="3" x2="1048" y1="754.8389" y2="754.8389"/><line style="stroke: #000000; stroke-width: 1.0;" x1="3" x2="1048" y1="757.8389" y2="757.8389"/><rect fill="#EEEEEE" filter="url(#f1)" height="23.3105" style="stroke: #000000; stroke-width: 2.0;" width="100" x="475.5" y="744.1836"/><text fill="#000000" font-family="sans-serif" font-size="13" font-weight="bold" lengthAdjust="spacingAndGlyphs" textLength="82" x="481.5" y="760.752">ttcopy (end)</text><rect fill="#EEEEEE" filter="url(#f1)" height="3" style="stroke: #EEEEEE; stroke-width: 1.0;" width="1045" x="3" y="798.1494"/><line style="stroke: #000000; stroke-width: 1.0;" x1="3" x2="1048" y1="798.1494" y2="798.1494"/><line style="stroke: #000000; stroke-width: 1.0;" x1="3" x2="1048" y1="801.1494" y2="801.1494"/><rect fill="#EEEEEE" filter="url(#f1)" height="23.3105" style="stroke: #000000; stroke-width: 2.0;" width="110" x="470.5" y="787.4941"/><text fill="#000000" font-family="sans-serif" font-size="13" font-weight="bold" lengthAdjust="spacingAndGlyphs" textLength="92" x="476.5" y="804.0625">ttpaste (start)</text><polygon fill="#A80036" points="466,842.8047,476,846.8047,466,850.8047,470,846.8047" style="stroke: #A80036; stroke-width: 1.0;"/><line style="stroke: #A80036; stroke-width: 1.0;" x1="26.5" x2="472" y1="846.8047" y2="846.8047"/><text fill="#000000" font-family="sans-serif" font-size="13" lengthAdjust="spacingAndGlyphs" textLength="95" x="33.5" y="842.373">(HTTP Request)</text><polygon fill="#FBFB77" filter="url(#f1)" points="493,825.8047,493,850.8047,700,850.8047,700,835.8047,690,825.8047,493,825.8047" style="stroke: #A80036; stroke-width: 1.0;"/><line style="stroke: #A80036; stroke-width: 1.0;" x1="690" x2="690" y1="825.8047" y2="835.8047"/><line style="stroke: #A80036; stroke-width: 1.0;" x1="700" x2="690" y1="835.8047" y2="835.8047"/><text fill="#000000" font-family="sans-serif" font-size="13" lengthAdjust="spacingAndGlyphs" textLength="186" x="499" y="843.373">URL : http://cl1p.net/ID_CLIP</text><polygon fill="#A80036" points="37.5,877.1152,27.5,881.1152,37.5,885.1152,33.5,881.1152" style="stroke: #A80036; stroke-width: 1.0;"/><line style="stroke: #A80036; stroke-width: 1.0;" x1="31.5" x2="477" y1="881.1152" y2="881.1152"/><text fill="#000000" font-family="sans-serif" font-size="13" lengthAdjust="spacingAndGlyphs" textLength="103" x="43.5" y="876.6836">enc-TRANS_URL</text><line style="stroke: #A80036; stroke-width: 1.0;" x1="26.5" x2="68.5" y1="915.7363" y2="915.7363"/><line style="stroke: #A80036; stroke-width: 1.0;" x1="68.5" x2="68.5" y1="915.7363" y2="928.7363"/><line style="stroke: #A80036; stroke-width: 1.0;" x1="21.5" x2="68.5" y1="928.7363" y2="928.7363"/><polygon fill="#A80036" points="31.5,924.7363,21.5,928.7363,31.5,932.7363,27.5,928.7363" style="stroke: #A80036; stroke-width: 1.0;"/><text fill="#000000" font-family="sans-serif" font-size="13" lengthAdjust="spacingAndGlyphs" textLength="362" x="33.5" y="910.9941">TRANS_URL = decode(PASSWORD_CLIP , enc-TRANS_URL)</text><polygon fill="#A80036" points="385.5,953.7363,395.5,957.7363,385.5,961.7363,389.5,957.7363" style="stroke: #A80036; stroke-width: 1.0;"/><line style="stroke: #A80036; stroke-width: 1.0;" x1="26.5" x2="391.5" y1="957.7363" y2="957.7363"/><text fill="#000000" font-family="sans-serif" font-size="13" lengthAdjust="spacingAndGlyphs" textLength="95" x="33.5" y="953.3047">(HTTP Request)</text><polygon fill="#FBFB77" filter="url(#f1)" points="412,936.7363,412,961.7363,542,961.7363,542,946.7363,532,936.7363,412,936.7363" style="stroke: #A80036; stroke-width: 1.0;"/><line style="stroke: #A80036; stroke-width: 1.0;" x1="532" x2="532" y1="936.7363" y2="946.7363"/><line style="stroke: #A80036; stroke-width: 1.0;" x1="542" x2="532" y1="946.7363" y2="946.7363"/><text fill="#000000" font-family="sans-serif" font-size="13" lengthAdjust="spacingAndGlyphs" textLength="109" x="418" y="954.3047">URL : TRANS_URL</text><polygon fill="#A80036" points="37.5,988.0469,27.5,992.0469,37.5,996.0469,33.5,992.0469" style="stroke: #A80036; stroke-width: 1.0;"/><line style="stroke: #A80036; stroke-width: 1.0;" x1="31.5" x2="396.5" y1="992.0469" y2="992.0469"/><text fill="#000000" font-family="sans-serif" font-size="13" lengthAdjust="spacingAndGlyphs" textLength="66" x="43.5" y="987.6152">enc-DATA</text><line style="stroke: #A80036; stroke-width: 1.0;" x1="26.5" x2="68.5" y1="1026.668" y2="1026.668"/><line style="stroke: #A80036; stroke-width: 1.0;" x1="68.5" x2="68.5" y1="1026.668" y2="1039.668"/><line style="stroke: #A80036; stroke-width: 1.0;" x1="21.5" x2="68.5" y1="1039.668" y2="1039.668"/><polygon fill="#A80036" points="31.5,1035.668,21.5,1039.668,31.5,1043.668,27.5,1039.668" style="stroke: #A80036; stroke-width: 1.0;"/><text fill="#000000" font-family="sans-serif" font-size="13" lengthAdjust="spacingAndGlyphs" textLength="325" x="33.5" y="1021.9258">DATA = decode(PASSWORD_TRANSFER , enc-DATA)</text><line style="stroke: #A80036; stroke-width: 1.0;" x1="26.5" x2="68.5" y1="1063.9785" y2="1063.9785"/><line style="stroke: #A80036; stroke-width: 1.0;" x1="68.5" x2="68.5" y1="1063.9785" y2="1076.9785"/><line style="stroke: #A80036; stroke-width: 1.0;" x1="27.5" x2="68.5" y1="1076.9785" y2="1076.9785"/><polygon fill="#A80036" points="37.5,1072.9785,27.5,1076.9785,37.5,1080.9785,33.5,1076.9785" style="stroke: #A80036; stroke-width: 1.0;"/><text fill="#000000" font-family="sans-serif" font-size="13" lengthAdjust="spacingAndGlyphs" textLength="74" x="33.5" y="1059.2363">print(DATA)</text><rect fill="#EEEEEE" filter="url(#f1)" height="3" style="stroke: #EEEEEE; stroke-width: 1.0;" width="1045" x="3" y="1105.6338"/><line style="stroke: #000000; stroke-width: 1.0;" x1="3" x2="1048" y1="1105.6338" y2="1105.6338"/><line style="stroke: #000000; stroke-width: 1.0;" x1="3" x2="1048" y1="1108.6338" y2="1108.6338"/><rect fill="#EEEEEE" filter="url(#f1)" height="23.3105" style="stroke: #000000; stroke-width: 2.0;" width="105" x="473" y="1094.9785"/><text fill="#000000" font-family="sans-serif" font-size="13" font-weight="bold" lengthAdjust="spacingAndGlyphs" textLength="87" x="479" y="1111.5469">ttpaste (end)</text></g></svg>