<?xml version="1.0" encoding="UTF-8" standalone="yes"?><svg xmlns="http://www.w3.org/2000/svg" xmlns:xlink="http://www.w3.org/1999/xlink" height="1161px" style="width:1173px;height:1161px;" version="1.1" viewBox="0 0 1173 1161" width="1173px"><defs><filter height="300%" id="f1" width="300%" x="-1" y="-1"><feGaussianBlur result="blurOut" stdDeviation="2.0"/><feColorMatrix in="blurOut" result="blurOut2" type="matrix" values="0 0 0 0 0 0 0 0 0 0 0 0 0 0 0 0 0 0 .4 0"/><feOffset dx="4.0" dy="4.0" in="blurOut2" result="blurOut3"/><feBlend in="SourceGraphic" in2="blurOut3" mode="normal"/></filter></defs><g><rect fill="#FFFFFF" filter="url(#f1)" height="34.3105" style="stroke: #A80036; stroke-width: 1.0;" width="10" x="530.5" y="519.3887"/><rect fill="#FFFFFF" filter="url(#f1)" height="69.6211" style="stroke: #A80036; stroke-width: 1.0;" width="10" x="530.5" y="896.4941"/><rect fill="#FFFFFF" filter="url(#f1)" height="34.3105" style="stroke: #A80036; stroke-width: 1.0;" width="10" x="611" y="630.3203"/><rect fill="#FFFFFF" filter="url(#f1)" height="69.6211" style="stroke: #A80036; stroke-width: 1.0;" width="10" x="611" y="785.5625"/><line style="stroke: #A80036; stroke-width: 1.0; stroke-dasharray: 5.0,5.0;" x1="26" x2="26" y1="86.4883" y2="1077.0469"/><line style="stroke: #A80036; stroke-width: 1.0; stroke-dasharray: 5.0,5.0;" x1="535.5" x2="535.5" y1="86.4883" y2="1077.0469"/><line style="stroke: #A80036; stroke-width: 1.0; stroke-dasharray: 5.0,5.0;" x1="615.5" x2="615.5" y1="86.4883" y2="1077.0469"/><text fill="#000000" font-family="sans-serif" font-size="14" lengthAdjust="spacingAndGlyphs" textLength="31" x="8" y="83.5352">Host</text><ellipse cx="26.5" cy="13" fill="#FEFECE" filter="url(#f1)" rx="8" ry="8" style="stroke: #A80036; stroke-width: 2.0;"/><path d="M26.5,21 L26.5,48 M13.5,29 L39.5,29 M26.5,48 L13.5,63 M26.5,48 L39.5,63 " fill="#FEFECE" filter="url(#f1)" style="stroke: #A80036; stroke-width: 2.0;"/><text fill="#000000" font-family="sans-serif" font-size="14" lengthAdjust="spacingAndGlyphs" textLength="31" x="8" y="1089.582">Host</text><ellipse cx="26.5" cy="1102.5352" fill="#FEFECE" filter="url(#f1)" rx="8" ry="8" style="stroke: #A80036; stroke-width: 2.0;"/><path d="M26.5,1110.5352 L26.5,1137.5352 M13.5,1118.5352 L39.5,1118.5352 M26.5,1137.5352 L13.5,1152.5352 M26.5,1137.5352 L39.5,1152.5352 " fill="#FEFECE" filter="url(#f1)" style="stroke: #A80036; stroke-width: 2.0;"/><text fill="#000000" font-family="sans-serif" font-size="14" lengthAdjust="spacingAndGlyphs" textLength="74" x="495.5" y="83.5352">transfer.sh</text><path d="M517.5,38 C517.5,28 535.5,28 535.5,28 C535.5,28 553.5,28 553.5,38 L553.5,60 C553.5,70 535.5,70 535.5,70 C535.5,70 517.5,70 517.5,60 L517.5,38 " fill="#FEFECE" filter="url(#f1)" style="stroke: #A80036; stroke-width: 1.5;"/><path d="M517.5,38 C517.5,48 535.5,48 535.5,48 C535.5,48 553.5,48 553.5,38 " fill="none" style="stroke: #A80036; stroke-width: 1.5;"/><text fill="#000000" font-family="sans-serif" font-size="14" lengthAdjust="spacingAndGlyphs" textLength="74" x="495.5" y="1089.582">transfer.sh</text><path d="M517.5,1102.5352 C517.5,1092.5352 535.5,1092.5352 535.5,1092.5352 C535.5,1092.5352 553.5,1092.5352 553.5,1102.5352 L553.5,1124.5352 C553.5,1134.5352 535.5,1134.5352 535.5,1134.5352 C535.5,1134.5352 517.5,1134.5352 517.5,1124.5352 L517.5,1102.5352 " fill="#FEFECE" filter="url(#f1)" style="stroke: #A80036; stroke-width: 1.5;"/><path d="M517.5,1102.5352 C517.5,1112.5352 535.5,1112.5352 535.5,1112.5352 C535.5,1112.5352 553.5,1112.5352 553.5,1102.5352 " fill="none" style="stroke: #A80036; stroke-width: 1.5;"/><text fill="#000000" font-family="sans-serif" font-size="14" lengthAdjust="spacingAndGlyphs" textLength="55" x="585.5" y="83.5352">cl1p.net</text><path d="M598,38 C598,28 616,28 616,28 C616,28 634,28 634,38 L634,60 C634,70 616,70 616,70 C616,70 598,70 598,60 L598,38 " fill="#FEFECE" filter="url(#f1)" style="stroke: #A80036; stroke-width: 1.5;"/><path d="M598,38 C598,48 616,48 616,48 C616,48 634,48 634,38 " fill="none" style="stroke: #A80036; stroke-width: 1.5;"/><text fill="#000000" font-family="sans-serif" font-size="14" lengthAdjust="spacingAndGlyphs" textLength="55" x="585.5" y="1089.582">cl1p.net</text><path d="M598,1102.5352 C598,1092.5352 616,1092.5352 616,1092.5352 C616,1092.5352 634,1092.5352 634,1102.5352 L634,1124.5352 C634,1134.5352 616,1134.5352 616,1134.5352 C616,1134.5352 598,1134.5352 598,1124.5352 L598,1102.5352 " fill="#FEFECE" filter="url(#f1)" style="stroke: #A80036; stroke-width: 1.5;"/><path d="M598,1102.5352 C598,1112.5352 616,1112.5352 616,1112.5352 C616,1112.5352 634,1112.5352 634,1102.5352 " fill="none" style="stroke: #A80036; stroke-width: 1.5;"/><rect fill="#FFFFFF" filter="url(#f1)" height="34.3105" style="stroke: #A80036; stroke-width: 1.0;" width="10" x="530.5" y="519.3887"/><rect fill="#FFFFFF" filter="url(#f1)" height="69.6211" style="stroke: #A80036; stroke-width: 1.0;" width="10" x="530.5" y="896.4941"/><rect fill="#FFFFFF" filter="url(#f1)" height="34.3105" style="stroke: #A80036; stroke-width: 1.0;" width="10" x="611" y="630.3203"/><rect fill="#FFFFFF" filter="url(#f1)" height="69.6211" style="stroke: #A80036; stroke-width: 1.0;" width="10" x="611" y="785.5625"/><polygon fill="#FBFB77" filter="url(#f1)" points="621,101.4883,621,355.4883,1159,355.4883,1159,111.4883,1149,101.4883,621,101.4883" style="stroke: #A80036; stroke-width: 1.0;"/><line style="stroke: #A80036; stroke-width: 1.0;" x1="1149" x2="1149" y1="101.4883" y2="111.4883"/><line style="stroke: #A80036; stroke-width: 1.0;" x1="1159" x2="1149" y1="111.4883" y2="111.4883"/><text fill="#000000" font-family="sans-serif" font-size="13" lengthAdjust="spacingAndGlyphs" textLength="12" x="627" y="119.0566">1.</text><text fill="#000000" font-family="sans-serif" font-size="13" lengthAdjust="spacingAndGlyphs" textLength="54" x="643" y="119.0566">Fnctions</text><ellipse cx="632.5" cy="129.6094" fill="#000000" rx="2.5" ry="2.5" style="stroke: #000000; stroke-width: 0.0;"/><text fill="#000000" font-family="sans-serif" font-size="13" lengthAdjust="spacingAndGlyphs" textLength="482" x="638" y="134.3672">encode(key, data) -- encode data with given key with AES256-CBC and gzip.</text><ellipse cx="632.5" cy="144.9199" fill="#000000" rx="2.5" ry="2.5" style="stroke: #000000; stroke-width: 0.0;"/><text fill="#000000" font-family="sans-serif" font-size="13" lengthAdjust="spacingAndGlyphs" textLength="506" x="638" y="149.6777">decode(key, data) -- decode data with given key with AES256-CBC and un-gzip.</text><ellipse cx="632.5" cy="160.2305" fill="#000000" rx="2.5" ry="2.5" style="stroke: #000000; stroke-width: 0.0;"/><text fill="#000000" font-family="sans-serif" font-size="13" lengthAdjust="spacingAndGlyphs" textLength="336" x="638" y="164.9883">sha512(data) -- Create message digest with SHA512.</text><text fill="#000000" font-family="sans-serif" font-size="13" lengthAdjust="spacingAndGlyphs" textLength="0" x="631" y="180.2988"/><text fill="#000000" font-family="sans-serif" font-size="13" lengthAdjust="spacingAndGlyphs" textLength="12" x="627" y="195.6094">2.</text><text fill="#000000" font-family="sans-serif" font-size="13" lengthAdjust="spacingAndGlyphs" textLength="140" x="643" y="195.6094">Environment Variables</text><ellipse cx="632.5" cy="206.1621" fill="#000000" rx="2.5" ry="2.5" style="stroke: #000000; stroke-width: 0.0;"/><text fill="#000000" font-family="sans-serif" font-size="13" lengthAdjust="spacingAndGlyphs" textLength="161" x="638" y="210.9199">TTCP_ID ... given by user.</text><ellipse cx="632.5" cy="221.4727" fill="#000000" rx="2.5" ry="2.5" style="stroke: #000000; stroke-width: 0.0;"/><text fill="#000000" font-family="sans-serif" font-size="13" lengthAdjust="spacingAndGlyphs" textLength="216" x="638" y="226.2305">TTCP_PASSWORD ... given by user.</text><ellipse cx="632.5" cy="236.7832" fill="#000000" rx="2.5" ry="2.5" style="stroke: #000000; stroke-width: 0.0;"/><text fill="#000000" font-family="sans-serif" font-size="13" lengthAdjust="spacingAndGlyphs" textLength="161" x="638" y="241.541">TTCP_SALT ... something.</text><text fill="#000000" font-family="sans-serif" font-size="13" lengthAdjust="spacingAndGlyphs" textLength="0" x="631" y="256.8516"/><ellipse cx="632.5" cy="267.4043" fill="#000000" rx="2.5" ry="2.5" style="stroke: #000000; stroke-width: 0.0;"/><text fill="#000000" font-family="sans-serif" font-size="13" lengthAdjust="spacingAndGlyphs" textLength="210" x="638" y="272.1621">ID_TRANSFER = sha512(TTCP_ID)</text><ellipse cx="632.5" cy="282.7148" fill="#000000" rx="2.5" ry="2.5" style="stroke: #000000; stroke-width: 0.0;"/><text fill="#000000" font-family="sans-serif" font-size="13" lengthAdjust="spacingAndGlyphs" textLength="354" x="638" y="287.4727">PASSWORD_TRANSFER = TTCP_PASSWORD + TTCP_SALT</text><text fill="#000000" font-family="sans-serif" font-size="13" lengthAdjust="spacingAndGlyphs" textLength="0" x="631" y="302.7832"/><ellipse cx="632.5" cy="313.3359" fill="#000000" rx="2.5" ry="2.5" style="stroke: #000000; stroke-width: 0.0;"/><text fill="#000000" font-family="sans-serif" font-size="13" lengthAdjust="spacingAndGlyphs" textLength="265" x="638" y="318.0938">ID_CL1P = sha512(TTCP_ID + TTCP_SALT)</text><ellipse cx="632.5" cy="328.6465" fill="#000000" rx="2.5" ry="2.5" style="stroke: #000000; stroke-width: 0.0;"/><text fill="#000000" font-family="sans-serif" font-size="13" lengthAdjust="spacingAndGlyphs" textLength="358" x="638" y="333.4043">PASSWORD_CL1P = sha512(TTCP_PASSWORD + TTCP_ID)</text><text fill="#000000" font-family="sans-serif" font-size="13" lengthAdjust="spacingAndGlyphs" textLength="0" x="631" y="348.7148"/><rect fill="#EEEEEE" filter="url(#f1)" height="3" style="stroke: #EEEEEE; stroke-width: 1.0;" width="1165" x="3" y="386.1123"/><line style="stroke: #000000; stroke-width: 1.0;" x1="3" x2="1168" y1="386.1123" y2="386.1123"/><line style="stroke: #000000; stroke-width: 1.0;" x1="3" x2="1168" y1="389.1123" y2="389.1123"/><rect fill="#EEEEEE" filter="url(#f1)" height="23.3105" style="stroke: #000000; stroke-width: 2.0;" width="105" x="533" y="375.457"/><text fill="#000000" font-family="sans-serif" font-size="13" font-weight="bold" lengthAdjust="spacingAndGlyphs" textLength="87" x="539" y="392.0254">ttcopy (start)</text><line style="stroke: #A80036; stroke-width: 1.0;" x1="26.5" x2="68.5" y1="430.0781" y2="430.0781"/><line style="stroke: #A80036; stroke-width: 1.0;" x1="68.5" x2="68.5" y1="430.0781" y2="443.0781"/><line style="stroke: #A80036; stroke-width: 1.0;" x1="27.5" x2="68.5" y1="443.0781" y2="443.0781"/><polygon fill="#A80036" points="37.5,439.0781,27.5,443.0781,37.5,447.0781,33.5,443.0781" style="stroke: #A80036; stroke-width: 1.0;"/><text fill="#000000" font-family="sans-serif" font-size="13" lengthAdjust="spacingAndGlyphs" textLength="96" x="33.5" y="425.3359">Create ... DATA</text><line style="stroke: #A80036; stroke-width: 1.0;" x1="26.5" x2="68.5" y1="472.3887" y2="472.3887"/><line style="stroke: #A80036; stroke-width: 1.0;" x1="68.5" x2="68.5" y1="472.3887" y2="485.3887"/><line style="stroke: #A80036; stroke-width: 1.0;" x1="27.5" x2="68.5" y1="485.3887" y2="485.3887"/><polygon fill="#A80036" points="37.5,481.3887,27.5,485.3887,37.5,489.3887,33.5,485.3887" style="stroke: #A80036; stroke-width: 1.0;"/><text fill="#000000" font-family="sans-serif" font-size="13" lengthAdjust="spacingAndGlyphs" textLength="384" x="33.5" y="467.6465">ENC_DATA = encode(TTCP_PASSWORD + TTCP_SALT , DATA)</text><polygon fill="#A80036" points="518.5,515.3887,528.5,519.3887,518.5,523.3887,522.5,519.3887" style="stroke: #A80036; stroke-width: 1.0;"/><line style="stroke: #A80036; stroke-width: 1.0;" x1="26.5" x2="524.5" y1="519.3887" y2="519.3887"/><text fill="#000000" font-family="sans-serif" font-size="13" lengthAdjust="spacingAndGlyphs" textLength="69" x="33.5" y="514.957">ENC_DATA</text><polygon fill="#FBFB77" filter="url(#f1)" points="545,498.3887,545,523.3887,784,523.3887,784,508.3887,774,498.3887,545,498.3887" style="stroke: #A80036; stroke-width: 1.0;"/><line style="stroke: #A80036; stroke-width: 1.0;" x1="774" x2="774" y1="498.3887" y2="508.3887"/><line style="stroke: #A80036; stroke-width: 1.0;" x1="784" x2="774" y1="508.3887" y2="508.3887"/><text fill="#000000" font-family="sans-serif" font-size="13" lengthAdjust="spacingAndGlyphs" textLength="218" x="551" y="515.957">URL : transfer.sh/sha512(TTCP_ID)</text><polygon fill="#A80036" points="37.5,549.6992,27.5,553.6992,37.5,557.6992,33.5,553.6992" style="stroke: #A80036; stroke-width: 1.0;"/><line style="stroke: #A80036; stroke-width: 1.0;" x1="31.5" x2="534.5" y1="553.6992" y2="553.6992"/><text fill="#000000" font-family="sans-serif" font-size="13" lengthAdjust="spacingAndGlyphs" textLength="73" x="43.5" y="549.2676">TRANS_URL</text><line style="stroke: #A80036; stroke-width: 1.0;" x1="26.5" x2="68.5" y1="583.3203" y2="583.3203"/><line style="stroke: #A80036; stroke-width: 1.0;" x1="68.5" x2="68.5" y1="583.3203" y2="596.3203"/><line style="stroke: #A80036; stroke-width: 1.0;" x1="27.5" x2="68.5" y1="596.3203" y2="596.3203"/><polygon fill="#A80036" points="37.5,592.3203,27.5,596.3203,37.5,600.3203,33.5,596.3203" style="stroke: #A80036; stroke-width: 1.0;"/><text fill="#000000" font-family="sans-serif" font-size="13" lengthAdjust="spacingAndGlyphs" textLength="495" x="33.5" y="578.5781">ENC_TRANS_URL = encode(sha512(TTCP_PASSWORD + TTCP_ID) , TRANS_URL)</text><polygon fill="#A80036" points="599,626.3203,609,630.3203,599,634.3203,603,630.3203" style="stroke: #A80036; stroke-width: 1.0;"/><line style="stroke: #A80036; stroke-width: 1.0;" x1="26.5" x2="605" y1="630.3203" y2="630.3203"/><text fill="#000000" font-family="sans-serif" font-size="13" lengthAdjust="spacingAndGlyphs" textLength="106" x="33.5" y="625.8887">ENC_TRANS_URL</text><polygon fill="#FBFB77" filter="url(#f1)" points="626,609.3203,626,634.3203,980,634.3203,980,619.3203,970,609.3203,626,609.3203" style="stroke: #A80036; stroke-width: 1.0;"/><line style="stroke: #A80036; stroke-width: 1.0;" x1="970" x2="970" y1="609.3203" y2="619.3203"/><line style="stroke: #A80036; stroke-width: 1.0;" x1="980" x2="970" y1="619.3203" y2="619.3203"/><text fill="#000000" font-family="sans-serif" font-size="13" lengthAdjust="spacingAndGlyphs" textLength="333" x="632" y="626.8887">URL : http://cl1p.net/sha512(TTCP_ID + TTCP_SALT)</text><polygon fill="#A80036" points="37.5,660.6309,27.5,664.6309,37.5,668.6309,33.5,664.6309" style="stroke: #A80036; stroke-width: 1.0;"/><line style="stroke: #A80036; stroke-width: 1.0;" x1="31.5" x2="615" y1="664.6309" y2="664.6309"/><text fill="#000000" font-family="sans-serif" font-size="13" lengthAdjust="spacingAndGlyphs" textLength="91" x="43.5" y="660.1992">(HTTP 200 OK)</text><rect fill="#EEEEEE" filter="url(#f1)" height="3" style="stroke: #EEEEEE; stroke-width: 1.0;" width="1165" x="3" y="693.5967"/><line style="stroke: #000000; stroke-width: 1.0;" x1="3" x2="1168" y1="693.5967" y2="693.5967"/><line style="stroke: #000000; stroke-width: 1.0;" x1="3" x2="1168" y1="696.5967" y2="696.5967"/><rect fill="#EEEEEE" filter="url(#f1)" height="23.3105" style="stroke: #000000; stroke-width: 2.0;" width="100" x="535.5" y="682.9414"/><text fill="#000000" font-family="sans-serif" font-size="13" font-weight="bold" lengthAdjust="spacingAndGlyphs" textLength="82" x="541.5" y="699.5098">ttcopy (end)</text><rect fill="#EEEEEE" filter="url(#f1)" height="3" style="stroke: #EEEEEE; stroke-width: 1.0;" width="1165" x="3" y="736.9072"/><line style="stroke: #000000; stroke-width: 1.0;" x1="3" x2="1168" y1="736.9072" y2="736.9072"/><line style="stroke: #000000; stroke-width: 1.0;" x1="3" x2="1168" y1="739.9072" y2="739.9072"/><rect fill="#EEEEEE" filter="url(#f1)" height="23.3105" style="stroke: #000000; stroke-width: 2.0;" width="110" x="530.5" y="726.252"/><text fill="#000000" font-family="sans-serif" font-size="13" font-weight="bold" lengthAdjust="spacingAndGlyphs" textLength="92" x="536.5" y="742.8203">ttpaste (start)</text><polygon fill="#A80036" points="599,781.5625,609,785.5625,599,789.5625,603,785.5625" style="stroke: #A80036; stroke-width: 1.0;"/><line style="stroke: #A80036; stroke-width: 1.0;" x1="26.5" x2="605" y1="785.5625" y2="785.5625"/><text fill="#000000" font-family="sans-serif" font-size="13" lengthAdjust="spacingAndGlyphs" textLength="95" x="33.5" y="781.1309">(HTTP Request)</text><polygon fill="#FBFB77" filter="url(#f1)" points="626,764.5625,626,789.5625,892,789.5625,892,774.5625,882,764.5625,626,764.5625" style="stroke: #A80036; stroke-width: 1.0;"/><line style="stroke: #A80036; stroke-width: 1.0;" x1="882" x2="882" y1="764.5625" y2="774.5625"/><line style="stroke: #A80036; stroke-width: 1.0;" x1="892" x2="882" y1="774.5625" y2="774.5625"/><text fill="#000000" font-family="sans-serif" font-size="13" lengthAdjust="spacingAndGlyphs" textLength="245" x="632" y="782.1309">URL : http://cl1p.net/sha512(TTCP_ID)</text><polygon fill="#A80036" points="37.5,815.873,27.5,819.873,37.5,823.873,33.5,819.873" style="stroke: #A80036; stroke-width: 1.0;"/><line style="stroke: #A80036; stroke-width: 1.0;" x1="31.5" x2="610" y1="819.873" y2="819.873"/><text fill="#000000" font-family="sans-serif" font-size="13" lengthAdjust="spacingAndGlyphs" textLength="106" x="43.5" y="815.4414">ENC_TRANS_URL</text><line style="stroke: #A80036; stroke-width: 1.0;" x1="26.5" x2="68.5" y1="854.4941" y2="854.4941"/><line style="stroke: #A80036; stroke-width: 1.0;" x1="68.5" x2="68.5" y1="854.4941" y2="867.4941"/><line style="stroke: #A80036; stroke-width: 1.0;" x1="21.5" x2="68.5" y1="867.4941" y2="867.4941"/><polygon fill="#A80036" points="31.5,863.4941,21.5,867.4941,31.5,871.4941,27.5,867.4941" style="stroke: #A80036; stroke-width: 1.0;"/><text fill="#000000" font-family="sans-serif" font-size="13" lengthAdjust="spacingAndGlyphs" textLength="495" x="33.5" y="849.752">TRANS_URL = decode(sha512(TTCP_PASSWORD + TTCP_ID) , ENC_TRANS_URL)</text><polygon fill="#A80036" points="518.5,892.4941,528.5,896.4941,518.5,900.4941,522.5,896.4941" style="stroke: #A80036; stroke-width: 1.0;"/><line style="stroke: #A80036; stroke-width: 1.0;" x1="26.5" x2="524.5" y1="896.4941" y2="896.4941"/><text fill="#000000" font-family="sans-serif" font-size="13" lengthAdjust="spacingAndGlyphs" textLength="95" x="33.5" y="892.0625">(HTTP Request)</text><polygon fill="#FBFB77" filter="url(#f1)" points="545,875.4941,545,900.4941,675,900.4941,675,885.4941,665,875.4941,545,875.4941" style="stroke: #A80036; stroke-width: 1.0;"/><line style="stroke: #A80036; stroke-width: 1.0;" x1="665" x2="665" y1="875.4941" y2="885.4941"/><line style="stroke: #A80036; stroke-width: 1.0;" x1="675" x2="665" y1="885.4941" y2="885.4941"/><text fill="#000000" font-family="sans-serif" font-size="13" lengthAdjust="spacingAndGlyphs" textLength="109" x="551" y="893.0625">URL : TRANS_URL</text><polygon fill="#A80036" points="37.5,926.8047,27.5,930.8047,37.5,934.8047,33.5,930.8047" style="stroke: #A80036; stroke-width: 1.0;"/><line style="stroke: #A80036; stroke-width: 1.0;" x1="31.5" x2="529.5" y1="930.8047" y2="930.8047"/><text fill="#000000" font-family="sans-serif" font-size="13" lengthAdjust="spacingAndGlyphs" textLength="69" x="43.5" y="926.373">ENC_DATA</text><line style="stroke: #A80036; stroke-width: 1.0;" x1="26.5" x2="68.5" y1="965.4258" y2="965.4258"/><line style="stroke: #A80036; stroke-width: 1.0;" x1="68.5" x2="68.5" y1="965.4258" y2="978.4258"/><line style="stroke: #A80036; stroke-width: 1.0;" x1="21.5" x2="68.5" y1="978.4258" y2="978.4258"/><polygon fill="#A80036" points="31.5,974.4258,21.5,978.4258,31.5,982.4258,27.5,978.4258" style="stroke: #A80036; stroke-width: 1.0;"/><text fill="#000000" font-family="sans-serif" font-size="13" lengthAdjust="spacingAndGlyphs" textLength="176" x="33.5" y="960.6836">DATA = decode(ENC_DATA)</text><line style="stroke: #A80036; stroke-width: 1.0;" x1="26.5" x2="68.5" y1="1002.7363" y2="1002.7363"/><line style="stroke: #A80036; stroke-width: 1.0;" x1="68.5" x2="68.5" y1="1002.7363" y2="1015.7363"/><line style="stroke: #A80036; stroke-width: 1.0;" x1="27.5" x2="68.5" y1="1015.7363" y2="1015.7363"/><polygon fill="#A80036" points="37.5,1011.7363,27.5,1015.7363,37.5,1019.7363,33.5,1015.7363" style="stroke: #A80036; stroke-width: 1.0;"/><text fill="#000000" font-family="sans-serif" font-size="13" lengthAdjust="spacingAndGlyphs" textLength="85" x="33.5" y="997.9941">Print ... DATA</text><rect fill="#EEEEEE" filter="url(#f1)" height="3" style="stroke: #EEEEEE; stroke-width: 1.0;" width="1165" x="3" y="1044.3916"/><line style="stroke: #000000; stroke-width: 1.0;" x1="3" x2="1168" y1="1044.3916" y2="1044.3916"/><line style="stroke: #000000; stroke-width: 1.0;" x1="3" x2="1168" y1="1047.3916" y2="1047.3916"/><rect fill="#EEEEEE" filter="url(#f1)" height="23.3105" style="stroke: #000000; stroke-width: 2.0;" width="105" x="533" y="1033.7363"/><text fill="#000000" font-family="sans-serif" font-size="13" font-weight="bold" lengthAdjust="spacingAndGlyphs" textLength="87" x="539" y="1050.3047">ttpaste (end)</text></g></svg>