<?xml version="1.0" encoding="utf-8"?>
<!-- Generator: Adobe Illustrator 16.0.0, SVG Export Plug-In . SVG Version: 6.00 Build 0)  -->
<!DOCTYPE svg PUBLIC "-//W3C//DTD SVG 1.1//EN" "http://www.w3.org/Graphics/SVG/1.1/DTD/svg11.dtd">
<svg version="1.1" id="Layer_1" xmlns="http://www.w3.org/2000/svg" xmlns:xlink="http://www.w3.org/1999/xlink" x="0px" y="0px"
	 width="345.599px" height="149.416px" viewBox="0 0 345.599 149.416" enable-background="new 0 0 345.599 149.416"
	 xml:space="preserve">
<rect x="146.98" y="46.261" fill="none" width="190.15" height="103.155"/>
<text transform="matrix(1 0 0 1 146.98 112.1089)"><tspan x="0" y="0" font-family="'Garamond'" font-size="100">c</tspan><tspan x="41.65" y="0" font-family="'Garamond'" font-size="100" letter-spacing="-1">o</tspan><tspan x="90.876" y="0" fill="#BE1E2D" font-family="'Garamond'" font-size="100">p</tspan><tspan x="141.902" y="0" font-family="'Garamond'" font-size="100">y</tspan></text>
<g>
	<g>
		<g>
			<g>
				<g>
					<path d="M330.576,42.742c0.471,0.195,0.44-0.256,0.538-0.303C330.271,42.256,330.562,42.852,330.576,42.742z"/>
					<polygon points="322.349,41.355 322.529,41.222 321.259,41.354 					"/>
					<path d="M314.862,39.817c0.586,0.802,2.738,0.387,4.026,0.905l0.187,0.203l0.721-0.442
						C318.147,40.255,315.975,40.181,314.862,39.817z"/>
					<path d="M311.081,37.638c0.208,0.311-0.911,0.111,0.931,0.222c-0.087-0.044-0.11-0.064-0.16-0.094
						C311.688,37.746,311.462,37.712,311.081,37.638z"/>
					<path d="M311.852,37.765C312.654,37.865,311.363,37.456,311.852,37.765L311.852,37.765z"/>
					<path d="M308.137,37.396l1.088-0.096c-0.197-0.194-1.132-0.364-0.767-0.433C307.356,36.847,307.56,37.041,308.137,37.396z"/>
					<path d="M307.072,37.775l0.558-0.032C307.544,37.663,307.402,37.614,307.072,37.775z"/>
					<path d="M308.814,37.688l-1.185,0.055c0.137,0.136,0.122,0.368,0.541-0.003C308.048,37.936,308.303,37.767,308.814,37.688z"/>
					<path d="M309.453,37.89c0.568,0.238,1.313,0.443,0.226,0.537C311.698,38.616,311.479,38.078,309.453,37.89z"/>
					<path d="M314.353,40.479l0.742,0.337l0.716-0.122C315.453,40.755,314.343,40.251,314.353,40.479z"/>
					<path d="M301.617,36.241c-0.082,0.144,0.311,0.438,0.368,0.639l0.797-0.09C302.394,36.637,301.646,36.472,301.617,36.241z"/>
					<path d="M301.985,36.88l-1.189,0.142C301.83,37.158,302.033,37.053,301.985,36.88z"/>
					<path d="M306.783,38.539c0,0,0.493-0.073,0.985-0.146c0.494-0.068,0.988-0.136,0.988-0.136s-0.586,0.057-1.172,0.113
						c-0.584,0.066-1.169,0.131-1.169,0.131L306.783,38.539z"/>
					<polygon points="297.167,35.779 297.86,35.49 296.635,35.915 					"/>
					<path d="M294.21,35.594c0.513-0.25-0.631-0.547-0.1-0.683c-0.808-0.014-1.513,0.173-2.146,0.353
						C292.629,35.187,293.326,35.283,294.21,35.594z"/>
					<path d="M290.905,35.521c0.332-0.047,0.68-0.149,1.059-0.256C291.611,35.309,291.262,35.381,290.905,35.521z"/>
					<path d="M298.823,36.748c-0.081-0.101-0.23-0.357-0.874-0.524l0.417,0.471C298.506,36.711,298.663,36.729,298.823,36.748z"/>
					<path d="M298.381,36.711l-0.015-0.016c-0.495-0.061-0.838-0.104-0.985-0.122C297.507,36.591,297.809,36.632,298.381,36.711z"/>
					<path d="M298.938,36.762c-0.042-0.005-0.073-0.009-0.115-0.014C298.863,36.794,298.889,36.811,298.938,36.762z"/>
					<path d="M303.794,37.79c-0.71,0.155-2.153,0.239-0.823,0.766C303.491,38.324,302.729,38.023,303.794,37.79z"/>
					<path d="M299.453,37.351l1.223,0.221c-0.013-0.115-0.219-0.301,0.132-0.385L299.453,37.351z"/>
					<polygon points="298.837,37.425 299.453,37.351 299,37.268 					"/>
					<path d="M292.993,36.077c-0.548,0.138-1.133,0.109-1.794,0.097c0.7,0.128,1.427,0.231,2.12,0.291
						C293.427,36.34,293.751,36.125,292.993,36.077z"/>
					<path d="M295.608,36.415c-0.037,0.004-0.084,0.01-0.12,0.015C295.558,36.471,295.615,36.487,295.608,36.415z"/>
					<polygon points="284.711,35.755 284.811,35.838 284.839,35.766 					"/>
					<path d="M293.431,36.555c0.524,0.126,0.85,0.049,1.163-0.058c-0.4,0.01-0.823,0.003-1.274-0.032
						C293.27,36.522,293.259,36.562,293.431,36.555z"/>
					<path d="M289.078,35.597c0.271,0.108,0.58,0.205,0.904,0.297C289.722,35.741,289.184,35.492,289.078,35.597z"/>
					<path d="M295.319,36.296c0.027-0.004,0.052-0.007,0.081-0.012C295.234,36.178,295.252,36.225,295.319,36.296z"/>
					<path d="M295.319,36.296c-0.278,0.039-0.503,0.126-0.726,0.201c0.325-0.006,0.629-0.027,0.895-0.068
						C295.425,36.394,295.363,36.342,295.319,36.296z"/>
					<path d="M282.602,38.387c0.113-0.39,1.523-0.68,2.697-0.19c1.197-0.231,0.506-1.574-0.488-2.358
						c-0.047,0.17-0.057,0.33-1.288,0.497c0.416,0.239,2.674,0.652,1.626,0.954c-1.622,0.115-1.312-0.212-2.084-0.464
						c0.639,0.529-2.087,0.605-1.771,1.349l1.423-0.178C282.735,38.11,282.216,38.263,282.602,38.387z"/>
					<path d="M287.133,36.012l0.505-0.015c-0.568-0.108-0.968-0.296-1.705-0.644c-0.848,0.147-1.028,0.284-1.094,0.413l2.469,0.199
						L287.133,36.012z"/>
					<path d="M289.892,36.149c-0.422,0.403-1.638,0.504-0.932,1.019c1.471,0.071,1.054-0.289,1.946-0.415
						c-2.382-0.056,0.7-0.192-1-0.554c0.473-0.041,0.895-0.035,1.293-0.025c-0.425-0.082-0.833-0.175-1.217-0.281
						c0.021,0.012,0.036,0.021,0.053,0.031l0.012-0.001l-0.003,0.007c0.099,0.061,0.13,0.095,0.017,0.056
						c-0.008,0.005-0.037,0.005-0.05,0.005c-0.021,0.059-0.068,0.108-0.119,0.155c-0.683-0.136-0.101-0.119,0.119-0.155
						c0.01-0.02,0.029-0.039,0.033-0.062l-0.009-0.006l-2.397,0.073C288.138,36.092,288.77,36.122,289.892,36.149z"/>
					<path d="M301.607,39.338c-0.068-0.045-0.062-0.076-0.064-0.107C301.385,39.269,301.323,39.298,301.607,39.338z"/>
					<path d="M300.663,38.981c0.179-0.042,0.34-0.199,0.895-0.099c0.471,0.178-0.025,0.206-0.015,0.349
						c0.349-0.08,1.213-0.189,0.179-0.504l-0.174,0.042c-0.937-0.243-2.109-0.901-1.937-0.944
						C299.852,38.239,300.069,38.539,300.663,38.981z"/>
					<path d="M295.218,37.625l-1.993,0.045l0.976,0.456l-0.032-0.228C295.283,38.079,295.063,37.784,295.218,37.625z"/>
					<polygon points="284.496,35.529 284.784,35.088 283.603,35.667 					"/>
					<polygon points="281.914,35.442 282.029,35.052 281.336,35.253 					"/>
					<path d="M137.229,44.733l-0.569,0.157C136.931,44.833,137.104,44.783,137.229,44.733z"/>
					<path d="M141.418,44.444l0.088-0.202C141.321,44.364,141.247,44.449,141.418,44.444z"/>
					<path d="M218.668,35.296c-0.858-0.344-1.823-0.888-1.707-0.446l0.274,0.425C217.825,35.18,218.28,35.215,218.668,35.296z"/>
					<path d="M175.609,39.847c0.083,0.038,0.169,0.078,0.255,0.118c0.196-0.161,0.38-0.311,0.546-0.447
						C176.168,39.617,175.896,39.729,175.609,39.847z"/>
					<path d="M175.119,41.674l-1.129-0.215C174.247,41.542,174.609,41.615,175.119,41.674z"/>
					<path d="M114.419,47.161l-0.636,0.498C114.837,47.565,114.354,47.384,114.419,47.161z"/>
					<path d="M255.516,34.904c-0.73-0.171-1.313-0.245-1.825-0.268C254.572,34.889,255.28,35.265,255.516,34.904z"/>
					<path d="M138.528,40.018c-0.349,0.105-0.494,0.205-0.476,0.3C138.412,40.217,138.612,40.119,138.528,40.018z"/>
					<path d="M251.576,34.631c0.129,0.043,0.256,0.066,0.387,0.104c0.535-0.071,1.074-0.127,1.728-0.098
						C253.04,34.449,252.294,34.332,251.576,34.631z"/>
					<path d="M31.654,55.193c-0.062-0.013-0.136-0.013-0.193-0.029C31.45,55.225,31.533,55.218,31.654,55.193z"/>
					<path d="M6.997,53.994c0.233-0.061,0.622-0.119,0.986-0.178C7.8,53.813,7.501,53.859,6.997,53.994z"/>
					<path d="M271.547,34.843C272.095,34.832,271.635,34.797,271.547,34.843L271.547,34.843z"/>
					<path d="M274.146,36.641c-0.118,0.045-0.208,0.104-0.226,0.204C273.97,36.741,274.048,36.677,274.146,36.641z"/>
					<path d="M246.148,37.342c-0.016,0-0.028,0-0.047-0.001C246.264,37.425,246.236,37.41,246.148,37.342z"/>
					<path d="M272.363,35.065c-0.204-0.06-0.438-0.111-0.695-0.15C271.78,34.952,271.991,35.001,272.363,35.065z"/>
					<path d="M272.259,34.857c0.188,0.022,0.336,0.04,0.477,0.057C272.807,34.844,272.747,34.796,272.259,34.857z"/>
					<path d="M270.784,34.842c0.312,0.003,0.604,0.033,0.884,0.073c-0.106-0.033-0.15-0.059-0.121-0.072
						C271.386,34.843,271.159,34.842,270.784,34.842z"/>
					<path d="M75.828,49.191c-0.037-0.01-0.08-0.014-0.12-0.028C75.18,49.399,75.417,49.345,75.828,49.191z"/>
					<path d="M204.663,40.309c0.025-0.005,0.039-0.017,0.061-0.023c-0.025-0.004-0.058-0.009-0.081-0.012L204.663,40.309z"/>
					<path d="M202.725,40.711c0.808-0.573,1.284-0.526,1.918-0.438l-0.697-1.223L202.725,40.711z"/>
					<path d="M127.222,45.718l1.398,0.27c-1.599,0.782-2.81,0.665-1.482,1.101c0.084-1.371,5.3-0.598,5.384-1.967l0.924,0.207
						c-0.259,0.009-0.294,0.092-0.551,0.101c1.803,0.497,1.226-1.092,3.5-1.094c0.795,0.037,1.36,0.198,0.835,0.397l1.729-0.467
						c0.513-0.012,0.406,0.232-0.104,0.245l2.669-0.31l-0.017,0.042c0.366-0.242,1.207-0.635,1.62-0.806
						c0.695,0.143-0.331,0.169-0.144,0.325l1.458-0.438c0.63,0.308-0.574,0.735-1.602,0.764c1.484,1.248,1.205-0.433,4.25,0.141
						l-1.387,0.273c0.958,0.703,2.03,0.345,3.646,0.71c-0.393-0.223-3.254-0.979-1.67-1.432c0.461,0.07,1.062,0.075,1.911-0.26
						c0.042,0.481,0.881,0.3,1.94,0.199l-0.027,0.644c1.134-0.264,1.02-0.582,1.675-0.916c1.283-0.025,1.582,0.451,1.911,0.847
						c2.054-0.04-1.468-0.695,0.947-0.983c1.719,0.125,2.896-0.216,4.908-0.729c1.207,0.142-0.183,0.404,0.257,0.559l1.023-0.578
						c0.26-0.005,0.186,0.157,0.149,0.239c0.877-0.256,0.031-0.643,1.42-0.908c0.333-0.73,2.939,0.841,4.622-0.062
						c0.438,0.155-0.182,0.404-0.036,0.643c2.345-0.671,2.014-0.507,3.923-1.333l1.688,0.321c-1.25-0.409,0.277-1.066,1.619-1.612
						c-0.447-0.207-0.83-0.387-1.084-0.469l2.166-0.47c0.27,0.089,0.062,0.321-0.28,0.609c0.146-0.062,0.284-0.122,0.392-0.177
						c0.795,0.191,0.411,0.583-0.128,0.972c-0.271-0.117-0.543-0.234-0.81-0.348c-0.517,0.419-0.996,0.878-0.862,1.245
						c0.138-0.082,0.407-0.161,0.706-0.214c-0.135,0.114-0.22,0.212-0.15,0.272c0.078,0.063,0.297-0.091,0.645-0.275l0.538,0.683
						l0.104-0.29l2.881,0.28c2.002-0.831,3.723-1.979,6.954-2.449c-0.778,0.565-0.128,0.862-0.14,1.483
						c-0.92-0.607-2.498,0.415-4.186,0.372c0.881,0.021,0.704,0.327,0.487,0.442l2.966-0.758c-0.041,0.509,0.656,0.345,1.45,0.512
						c-0.644-0.972,2.201-0.778,3.405-1.146c0.093,0.332-0.183,0.689-1.675,0.683c1.68,0.671,2.063-1.28,3.708-0.721
						c-0.363,0.026-0.562-0.016-0.697,0.162c0.834-0.341,2.922-0.208,2.447,0.11l-0.362,0.025c2.419,0.004,7.346-0.327,7.67-1.194
						c0.029,0.108-0.272,1.039-0.411,1.217l4.19-3.037c-0.35,0.745,1.177,2.425-0.808,2.918c0.579,0.081,1.294,0.173,2.496-0.133
						c-0.396-0.088-1.019-1.016-0.486-1.104c1.503,0.755,1.039,0.39,2.877,1.016c-0.593-0.136,0.016-1.303,0.947-1.3
						c-0.139,0.176,0.119,1.127-0.216,1.258l2.271-1.206c-0.57,0.223-0.068,0.956,0.46,1.255c-0.248-0.211,1.999-0.05,2.61-0.184
						l-0.988-0.226c2.615,0.078,2.527-1.662,5.122-1.684c-0.307,0.242-0.731,1.452,0.589,1.554c0.586-0.593,2.594-2.854,4.882-3.349
						l0.449,0.319l1.754-0.418c-1.079,0.896-4.108,2.784-5.764,3.548c0.984,0.232,0.283,0.377,1.744,0.309
						c0.524,0.295-0.784,0.487-1.213,0.521l3.407,0.112c-0.168-0.668,2.586-0.737,2.444-1.294l-3.681,0.787
						c-0.168-0.667,2.09-1.96,4.51-1.9c0.62,0.252-0.434,1.208-0.378,1.43c0.308-0.242,2.281-0.495,2.506-0.332l-1.016,0.378
						c1.347,0.228,2.174-0.931,3.801-0.319c0.558,0.033,1.677,0.835,1.767,0.436c-0.92-0.75-1.14-3.12-0.541-3.707
						c0.197,0.043,2.945,0.684,3.587,1.061c0.926,0.59-1.36,1.449-0.571,1.957c0.031-0.184,0.535-0.417,0.746-0.491
						c0.587,0.15-0.235,0.571,1.035,0.474c0.204-0.684,2.587,0.028,0.595-0.583c1.242-0.209,1.323,0.125,2.784,0.079
						c-0.469-0.438,1.301-1.507,2.55-1.706c-0.073,0.174,0.209,0.398,0.345,0.5c2.555,0.051,3.926,0.349,6.306,0.369
						c0.219,0.166,1.366,0.369,0.876,0.661c0.343-0.119,0.658-0.349,1.393-0.363c1.416,0.594-1.637,0.085-0.558,0.797
						c0.094-0.394,1.899-0.545,2.947-0.779c-0.316-0.622-2.416-0.129-3.463,0.113c-0.002-0.838,1.826-1.734,4.324-2.091
						c1.983-0.186,0.853,0.556,1.198,0.44c3.717,0.192,3.192-1.443,6.275-0.767c1.216,0.563,0.033,1.071,0.297,1.464
						c-1.615,0.172-2.468-0.4-3.562-0.389l1.341,0.276c-0.516,0.164-1.594,0.29-2.178,0.126c1.019,0.485,6.277,0.203,9.13,0.733
						c0.514-0.165,1.398-0.324,0.989-0.553l-0.909,0.047c-0.822-0.459,1.726-0.546,0.582-0.784c1.228-0.265,2.611-0.707,4.319-0.4
						l0.3,0.626c-0.03-0.183-1.108-0.411-1.597-0.236c0.726-0.257,2.597,0.932,3.412,0.161l-1.186-0.475
						c1.235-0.256,2.779-0.842,4.295-0.584c-0.665-0.634-0.354,0.054-1.405-0.699c0.899,0.92-3.898-0.202-2.429,0.787
						c-1.078-0.871-1.908-0.432-3.337-1.174c0.038,0.204,0.502,0.403-0.775,0.264c-0.06,0.057-0.198,0.128-0.286,0.169
						c-0.039-0.008-0.053-0.011-0.086-0.018c0.025,0.009,0.045,0.017,0.069,0.026c-0.056,0.028-0.061,0.035,0.026,0.009
						c0.302,0.098,0.545,0.212,0.642,0.328c-0.649,0.444-2.681,0.366-3.374,0.585c-0.756-0.12,0.323-0.223-0.085-0.451l-1.036,0.332
						c-0.09-0.451-1.997-0.789-0.203-1.014l-1.609-0.054c-0.941-0.272-2.244-0.399-3.052-0.228
						c-0.759-0.117-1.926,0.467-1.259,0.123l-2.527,0.249l-0.022-0.113c-2.49-0.094-5.128,0.693-7.97-0.123
						c-0.838,0.112-1.704,0.241-3.105,0.123l-0.273-0.387c-1.075,0.14-3.233-0.375-3.693,0.032
						c-1.169-1.051-5.225-0.175-7.118-0.342l-0.064,0.508c-1.303-0.018-2.548,0.157-4.159,0.387l0.107,0.446
						c-1.385,0.396-3.585-0.261-5.785-0.155c0.146-0.175,0.705-0.145,1.103-0.05c-2.655-0.944-5.531,0.861-7.934,0.203
						c-0.589,0.181-1.021,0.138-1.441,0.038c0.055-0.002,0.104-0.012,0.146-0.027c-0.061-0.004-0.151-0.002-0.244,0.001
						c-0.265-0.069-0.538-0.15-0.833-0.214c0.252,0.102,0.493,0.184,0.702,0.22c-0.458,0.023-1.151,0.099-1.829,0.232l-0.305-0.473
						c-0.056,0.007-0.1,0.012-0.157,0.019c-0.675-0.158-0.53,0.244-0.162,0.595c-0.34,0.089-0.651,0.194-0.892,0.317
						c-0.568-0.759-1.777,0.325-2.546-0.478c-0.445,0.42-3.413,0.426-3.744,1.289c-0.027-0.109-0.229-0.156,0.138-0.175
						c-0.763-0.072-1.524-0.139-2.196,0.13l-0.346-0.599l-1.624,0.889c-1.021-0.332-1.447-0.531-0.467-1.042
						c-2.384,0.822-1.948,0.35-3.969,1.155l0.083-0.4c-0.733,0.048-1.881,0.631-2.338,0.324c-1.675-0.685-8.12,0.272-12.365-0.206
						c0.877,1.12-1.984-0.416-2.104,0.496c-0.26-0.262-0.855-0.386-0.186-0.663c-2.134,0.388-3.252-0.262-4.693,0.581
						c-0.262-0.263,0.437-0.431,0.209-0.582c-0.169,0.07-0.669,0.28-0.902,0.128c-0.228-0.151,0.301-0.249,0.635-0.389
						c-2.192,0.174-2.366,1.035-2.479,1.84c-1.133-0.312-1.685-0.227-2.457,0.342c-0.402-0.238-1.064-0.474,0.293-0.646
						c-0.769,0.002-4.707-0.104-4.746,0.542c-0.25-0.147-1.074,0.02-1.271,0.105c-1.722,0.068-1.877,0.02-3.562,0.185l0.475,0.075
						c-0.618,0.81-1.393,0.263-2.748,0.444l0.034-0.082c-3.157-0.351-1.33,0.354-4.45-0.077l0.199,0.467
						c-0.218,1.045-2.768-0.421-4.528,0.095l0.664,0.229c-0.951,0.419-2.824-1.212-3.814-1.273c-0.22-0.075,0.328-0.167,0.621-0.254
						c-2.61-0.429-0.289,0.649-2.19,0.931c-0.376-0.312,0.394-0.892-0.898-0.862c-0.662-0.227-3.653,1.366-5.456,0.847
						c0.406,0.231,0.809,0.463-0.064,0.725c-1.353,0.196-3.752-0.707-4.919,0.207c-0.178-0.058-0.249-0.121-0.261-0.186
						c-1.025,0.282-3.352,0.624-3.942,1.125c-1.09-1.569-6.395,1.361-6.493-0.164l-3.189,0.357l0.071-0.163
						c-2.052,0.076-2.744,0.503-3.432,0.931c-0.48-0.063-0.148-0.235-0.115-0.318c-3.01-0.049-3.303,0.042-5.74,1.016l-0.302-0.471
						c-0.653,0.346-4.383-0.401-7.26,0.428c0.023-0.059,0.076-0.16,0.302-0.25c-3.242,0.864-8.011-0.688-9.055,1.214l-2.132,0.631
						c2.824-0.103-0.347,0.816,0.837,1.015c-1.095,0.201-2.908-0.295-1.558-0.505l0.221,0.072c0.412-0.98-3.524-0.03-3.508-0.675
						c-1.382,0.132-2.759,0.225-4.128,0.303c-1.368,0.084-2.726,0.168-4.073,0.25c-2.696,0.149-5.351,0.282-7.94,0.53l0.669,0.666
						l-1.809,0.145c-0.491-0.121-0.693-0.503,0.598-0.606c-0.719-0.342-2.125,0.568-2.146,0.731
						c-2.552-0.035,0.899-0.951,0.124-0.888l-1.045,0.162l0.246,0.061c-0.821,0.385-0.865,0.708-2.416,0.832
						c-0.994-0.044-0.548-0.396-0.937-0.385c-0.003-0.051-0.136-0.062-0.594,0.041l-2.281,0.173l0.969,0.48
						c-0.979,0.387-2.141,0.191-1.024,0.733c-1.645-0.844-8.52,0.516-9.499,0.303c-1.367,0.565-2.761,0.701-4.492,0.829
						c0.442,0.075,0.769,0.694-0.728,0.769c0.398-1.388-2.79-0.296-4.1-1.129c1.145,0.502-4.211,0.646-2.424,1.352
						c-1.252,0.041-0.131-0.489-1.108-0.689c-2.894,0.87-6.546,0.444-10.177,1.056c-0.037,0.181,0.606,0.375-0.145,0.729
						l-2.032-0.642c-0.711,0.172-0.542,1.087-1.932,0.639c0.204,0.125,0.508,0.312,0.032,0.426
						c-3.627,0.003-7.259,0.615-10.915,1.135c-0.914,0.13-1.83,0.254-2.747,0.362c-0.918,0.132-1.839,0.248-2.763,0.335
						c-1.848,0.176-3.707,0.241-5.593,0.11c1.041,0.192,0.388,0.322-0.363,0.444c0.502,0.009,0.058,0.431,0.192,0.652l-3.152-0.207
						c-0.441,0.733-3.258,0.522-3.461,1.191l0.942-0.253c-1.143,0.921,2.083,1.371,2.059,2.343c1.282-1.045,3.949,0.692,6.083-0.848
						c0.544,0.118-0.392,0.37-0.083,0.549c0.527-0.492,1.229-0.682,2.577-0.692l-0.134,0.123c1.85-0.316,3.18-0.452,4.585-0.509
						c1.41-0.045,2.883-0.052,5-0.17l-0.371-0.433c0.911-0.045,1.12,0.079,1.558,0.146c0.946-0.836-2.542,0.264-1.697-0.635
						c1.319,0.812,6.372-0.749,7.315,0.241c1.39-0.161-0.474-0.495,0.915-0.655l0.404,0.25l0.305-0.421
						c0.918-0.047,1.422,0.266,1.487,0.511c-0.225-0.003-0.62,0.145-0.854,0.195c1.222,0.205,3.314-0.517,3.733-0.453l-1.356-0.021
						c3.757-0.729,8.43-0.897,12.024-1.935l-0.303-0.189c2.751-0.75,2.269-0.019,5.325-0.53l-0.106,0.064
						c0.591-0.285,1.402-0.482,2.247-0.543c-0.749,0.34,1.518,0.354,0.53,0.748c2.991-0.755,1.465-0.502,3.384-1.535l0.503,0.32
						c0.648-0.404,0.687-0.586,2.214-0.84c-1.227,0.447,1.042,0.46-0.326,1.025c3.311,0.473,4.704-1.309,6.307-0.283
						c1.375-1.174-2.851-0.279-2.044-0.583c-0.73-0.262,1.143-0.89,2.166-0.892c1.034-0.083,1.889,1.125,4.478,0.837
						c-0.258,0.022-0.268,0.101-0.525,0.123c0.997,0.161,1.864-0.549,3.097-0.249c0.604-0.686,1.548-0.124,1.661-0.931l-2.359,0.428
						c1.327-0.345,2.498-1.397,4.765-1.18c-0.157,0.177-0.797,0.454-1.239,0.617c0.673,0.166,1.235-0.283,1.932-0.114
						c-0.113,0.808-2.873,0.47-4.256,1.22c0.73,0.261,2.674-0.854,2.034,0.075c0.934-1.193,2.567-0.127,4.239-1.137l-0.069,0.484
						c0.271-0.103,0.824-0.385,1.336-0.426l-0.865,0.708c1.369-0.669,2.784,0.173,4.118-0.251c-2.852,0.31-0.696-0.502-1.936-0.723
						c3.458-0.996,2.145,1.026,6.062,0.393c-0.527,0.122-2.03-0.077-1.217-0.382c0.76,0.022,1.767,0.094,2.252,0.304
						c2.604-0.324-0.448-0.451,0.637-0.837c0.945,0.499,1.262-0.345,2.391-0.628l0.053,0.479c3.008,0.051,0.696-1.069,3.414-0.929
						l-1.072,0.764l1.382-0.293l-0.238,0.571c1.484-0.537,1.968-0.473,3.472-0.448c-0.378-0.309,0.115-0.889,1.434-1.018
						c0.926,0.208-0.462,0.5,1.402,0.27c-0.395,0.337-0.823,0.754-1.678,0.382c-0.069,0.164-0.389,0.338-0.46,0.5
						c0.999,0.244,2.442-0.136,3.119-0.199c-0.262,0.005-0.576,0.006-0.742-0.049l2.652-0.9c0.443,0.144,0.117,0.318-0.206,0.488
						c0.544-0.099,0.905-0.353,1.709-0.464c-0.174,0.409-0.089,0.808-1.215,1.09l2.545-0.656c0.188,0.155,1.367,0.352,1.044,0.525
						c1.452,0.106,3.447-1.062,5.372-0.923c0.092-0.084,0.284-0.174,0.683-0.264c1.792-0.066,3.413,0.277,5.483-0.442l1.258,0.597
						c1.643-0.302-1.698-0.742,1.039-1.245c1.935-0.393,0.778,0.534,1.479,0.67c0.942-0.437,2.573-1.302,4.413-0.886
						C128.247,45.682,127.772,45.618,127.222,45.718z M147.64,43.773c-0.389,0.13-1.157,0.498-1.467,0.236
						C146.584,43.424,146.953,43.663,147.64,43.773z M178.678,40.598c-0.286,0.177-0.747,0.125-1.272-0.028
						C177.778,40.508,178.202,40.501,178.678,40.598z M265.545,35.083c-0.017,0.008-0.029,0.013-0.043,0.023
						C264.615,34.9,264.93,34.98,265.545,35.083z M267.389,35.333c0.188-0.064,0.176-0.131,0.1-0.2
						c-0.132,0.12-0.548,0.119-1.02,0.075C266.598,35.336,266.834,35.429,267.389,35.333z M69.713,46.56l0.37,0.088
						C69.291,46.869,69.504,46.722,69.713,46.56z"/>
					<path d="M175.187,41.462c-0.117-0.075-0.153-0.163-0.185-0.252C174.851,41.3,174.853,41.394,175.187,41.462z"/>
					<path d="M114.537,47.068l-0.062,0c-0.032,0.032-0.048,0.063-0.056,0.093L114.537,47.068z"/>
					<path d="M238.827,39.311c-0.38-0.065-0.592-0.151-0.733-0.241C238.074,39.188,238.248,39.286,238.827,39.311z"/>
					<path d="M277.217,34.825l-1.191,0.075c0.575,0,0.775,0.114,1.062,0.203C277.065,34.989,276.846,34.817,277.217,34.825z"/>
					<path d="M287.324,38.331c0.176-0.048,0.365,0.018,0.538-0.03l-0.032-0.227C287.096,38.039,286.572,38.184,287.324,38.331z"/>
					<path d="M278.246,36.473c0.076,0.41,0.823,0.303,1.654,0.263c-0.05,0-0.097,0.001-0.146-0.006
						C280.024,36.172,279.133,36.323,278.246,36.473z"/>
					<path d="M280.093,36.73c0.256-0.008,0.518-0.008,0.766,0.022C280.967,36.529,280.551,36.692,280.093,36.73z"/>
					<path d="M269.74,35.119c0.391,0.117,0.261-0.511,0.479-0.339C270.673,34.276,267.578,35.326,269.74,35.119z"/>
					<polygon points="278.857,37.837 278.583,37.324 278.103,37.708 					"/>
					<path d="M272.347,37.223l1.316,0.18c-0.018-0.084,0.152-0.129,0.359-0.16C273.209,37.201,272.32,37.074,272.347,37.223z"/>
					<path d="M274.022,37.243c0.424,0.023,0.828,0.025,1.066-0.049C274.859,37.191,274.365,37.193,274.022,37.243z"/>
					<polygon points="277.047,37.911 276.661,37.79 275.73,37.713 					"/>
					<path d="M258.144,36.836l-1.443,0.126c-0.148,0.17,0.243,0.279,0.78,0.217C257.827,37.065,258.363,37.005,258.144,36.836z"/>
					<path d="M262.483,38.26c-0.388-0.108-0.412-0.22-0.629-0.388l-0.054,0.62L262.483,38.26z"/>
					<path d="M258.284,38.355c-0.146,0.171-2.094,0.47-0.27,0.453C258.162,38.639,259.605,38.513,258.284,38.355z"/>
					<polygon points="236.577,37.634 236.943,37.621 236.876,36.604 					"/>
					<path d="M217.519,40.525c1.711,0.193,0.385-0.64,1.935-0.382c0.393-0.253-1.267-0.211-0.862-0.431
						C217.57,39.998,217.025,39.87,217.519,40.525z"/>
					<path d="M218.591,39.712c0.164-0.045,0.336-0.099,0.521-0.17C218.815,39.615,218.677,39.667,218.591,39.712z"/>
					<polygon points="2.891,54.043 1.756,53.995 2.525,54.228 					"/>
					<path d="M0.926,55.095l-0.378-0.601L0,55.168C0.242,55.104,0.711,54.978,0.926,55.095z"/>
					<path d="M150.772,44.858l0.073-0.162c-0.182-0.157-0.438-0.151-0.954-0.14L150.772,44.858z"/>
					<polygon points="135.9,45.48 136.157,45.472 135.635,44.927 					"/>
					<path d="M123.519,47.301c0.51-0.02,1.096-0.202,1.608-0.221C124.028,47.282,123.321,46.583,123.519,47.301z"/>
				</g>
			</g>
		</g>
	</g>
</g>
<g>
	<g>
		<g>
			<g>
				<path d="M344.7,136.14c1.143-0.048,0.728-0.112,0.898-0.134C343.683,136.098,344.752,136.165,344.7,136.14z"/>
				<polygon points="327.008,141.177 327.302,141.022 324.715,141.745 				"/>
				<path d="M310.076,143.087c0.831,0.266,2.384,0.183,4.093-0.065c1.71-0.244,3.605-0.452,5.12-0.569l0.514,0.049l1.298-0.573
					c-0.91,0.136-1.889,0.283-2.885,0.432c-1.004,0.118-2.024,0.238-3.011,0.354c-0.986,0.116-1.939,0.227-2.81,0.306
					C311.521,143.072,310.73,143.1,310.076,143.087z"/>
				<path d="M300.897,141.842c0.571,0.283-1.957,0.233,2.123,0.096c-0.207-0.03-0.267-0.048-0.387-0.07
					C302.267,141.87,301.76,141.867,300.897,141.842z"/>
				<path d="M302.634,141.868C304.429,141.859,301.448,141.632,302.634,141.868L302.634,141.868z"/>
				<path d="M294.345,141.943l2.364-0.2c-0.5-0.189-2.608-0.301-1.828-0.405C292.457,141.402,292.958,141.61,294.345,141.943z"/>
				<path d="M292.106,142.472l1.228-0.093C293.117,142.298,292.792,142.262,292.106,142.472z"/>
				<path d="M295.936,142.196l-2.602,0.183c0.346,0.137,0.387,0.389,1.195-0.062C294.32,142.544,294.831,142.33,295.936,142.196z"/>
				<path d="M297.412,142.332c1.331,0.162,3.053,0.245,0.683,0.521C302.626,142.708,301.933,142.228,297.412,142.332z"/>
				<path d="M309.252,143.78l1.796,0.072l1.523-0.298C311.811,143.708,309.126,143.59,309.252,143.78z"/>
				<path d="M279.591,140.937c-0.15,0.189,0.79,0.559,0.965,0.812l1.753-0.143C281.409,141.435,279.706,141.232,279.591,140.937z"/>
				<path d="M280.556,141.749l-2.626,0.232C280.271,142.111,280.701,141.969,280.556,141.749z"/>
				<polygon points="291.694,143.363 295.997,142.812 290.863,143.366 				"/>
				<polygon points="269.596,140.314 271.093,139.925 268.429,140.491 				"/>
				<path d="M262.963,139.973c1.112-0.355-1.477-0.83-0.307-1.016c-1.805-0.064-3.359,0.19-4.759,0.429
					C259.376,139.304,260.946,139.482,262.963,139.973z"/>
				<path d="M255.549,139.714c0.74-0.054,1.511-0.188,2.349-0.329C257.111,139.431,256.336,139.518,255.549,139.714z"/>
				<path d="M273.465,141.667c-0.2-0.136-0.583-0.486-2.049-0.719l1.016,0.651C272.747,141.62,273.104,141.643,273.465,141.667z"/>
				<path d="M272.468,141.62l-0.036-0.021c-1.119-0.081-1.895-0.137-2.228-0.161C270.49,141.461,271.172,141.516,272.468,141.62z"/>
				<path d="M273.726,141.685c-0.097-0.007-0.167-0.011-0.261-0.018C273.562,141.73,273.622,141.753,273.726,141.685z"/>
				<path d="M284.81,142.788c-1.543,0.232-4.768,0.476-1.653,1.012C284.267,143.468,282.485,143.154,284.81,142.788z"/>
				<path d="M274.991,142.478c0,0,0.696,0.07,1.393,0.121c0.696,0.055,1.393,0.109,1.393,0.109
					c-0.052-0.149-0.551-0.384,0.215-0.511L274.991,142.478z"/>
				<polygon points="273.621,142.591 274.991,142.478 273.958,142.374 				"/>
				<path d="M260.292,140.663c-1.215,0.2-2.533,0.14-4.021,0.084c1.588,0.239,3.233,0.41,4.801,0.507
					C261.3,141.066,262.002,140.753,260.292,140.663z"/>
				<path d="M266.207,141.193c-0.084,0.006-0.19,0.014-0.269,0.02C266.101,141.274,266.232,141.298,266.207,141.193z"/>
				<path d="M241.646,139.655c0.077,0.051,0.147,0.097,0.227,0.15c0.021-0.041,0.036-0.08,0.062-0.12L241.646,139.655z"/>
				<path d="M261.334,141.39c1.195,0.201,1.917,0.074,2.606-0.08c-0.897,0.015-1.849,0.007-2.869-0.056
					C260.968,141.338,260.947,141.397,261.334,141.39z"/>
				<path d="M251.457,139.722c0.616,0.188,1.316,0.361,2.054,0.523C252.911,139.991,251.686,139.561,251.457,139.722z"/>
				<path d="M265.541,141.019c0.06-0.006,0.114-0.011,0.18-0.017C265.333,140.846,265.38,140.914,265.541,141.019z"/>
				<path d="M265.541,141.019c-0.62,0.054-1.109,0.18-1.601,0.291c0.73-0.009,1.409-0.039,1.998-0.097
					C265.791,141.161,265.646,141.086,265.541,141.019z"/>
				<path d="M236.913,143.995c0.259-0.672,3.454-1.075,6.141-0.202c2.716-0.344,1.075-2.57-1.181-3.988
					c-0.101,0.282-0.116,0.551-2.892,0.732c0.938,0.455,6.06,1.296,3.699,1.731c-3.675,0.098-2.979-0.441-4.73-0.928
					c1.456,0.949-4.728,0.896-4.021,2.218l3.24-0.229C237.217,143.526,236.032,143.761,236.913,143.995z"/>
				<path d="M247.108,140.277l1.136,0.006c-1.284-0.211-2.194-0.535-3.863-1.188c-1.898,0.167-2.303,0.379-2.446,0.591l5.565,0.524
					L247.108,140.277z"/>
				<path d="M253.327,140.645c-0.915,0.613-3.654,0.736-2.023,1.583c3.334,0.154,2.361-0.428,4.363-0.592
					c-5.377-0.178,1.558-0.27-2.302-0.91c1.06-0.043,2.009-0.01,2.905,0.022c-0.963-0.146-1.889-0.314-2.76-0.501
					c0.048,0.02,0.082,0.034,0.121,0.051l0.025-0.001c0,0.005-0.006,0.006-0.006,0.011c0.228,0.101,0.301,0.157,0.043,0.09
					c-0.019,0.008-0.084,0.006-0.112,0.006c-0.041,0.092-0.145,0.167-0.255,0.239c-1.546-0.25-0.235-0.193,0.255-0.239
					c0.02-0.031,0.062-0.06,0.069-0.096l-0.02-0.01l-5.388-0.013C249.375,140.464,250.799,140.547,253.327,140.645z"/>
				<path d="M280.267,144.918c-0.166-0.05-0.158-0.09-0.171-0.13C279.746,144.851,279.612,144.896,280.267,144.918z"/>
				<path d="M278.05,144.551c0.395-0.072,0.725-0.291,1.999-0.21c1.104,0.185-0.009,0.264,0.047,0.448
					c0.771-0.139,2.694-0.347,0.288-0.66l-0.383,0.068c-2.171-0.225-4.943-1.009-4.562-1.084
					C276.061,143.649,276.611,144.03,278.05,144.551z"/>
				<path d="M265.502,142.95l-4.499,0.111l2.267,0.653l-0.104-0.334C265.714,143.608,265.177,143.186,265.502,142.95z"/>
				<polygon points="241.157,139.254 241.795,138.539 239.151,139.403 				"/>
				<polygon points="235.353,138.848 235.613,138.182 234.055,138.457 				"/>
				<path d="M124.444,52.758l-0.886,0.945C123.985,53.265,124.252,52.975,124.444,52.758z"/>
				<path d="M131.444,46.095l0.076-0.257C131.257,46.208,131.165,46.375,131.444,46.095z"/>
				<path d="M106.893,102.005c0.12-0.748,0.526-1.499,0.688-1.986c0.211-0.498,0.282-0.792-0.167-0.7c0,0-0.211,0.109-0.422,0.219
					c-0.212,0.117-0.424,0.234-0.424,0.234C106.841,100.678,106.867,101.366,106.893,102.005z"/>
				<path d="M149.671,19.25c-0.159,0.11-0.324,0.225-0.487,0.338c-0.117,0.498-0.228,0.965-0.327,1.385
					C149.103,20.455,149.38,19.867,149.671,19.25z"/>
				<path d="M148.558,16.689l1.892-1.763C149.988,15.294,149.376,15.859,148.558,16.689z"/>
				<path d="M96.387,96.237l-0.612,1.524C97.187,95.691,96.418,96.5,96.387,96.237z"/>
				<path d="M176.347,131.754c-1.563-0.626-2.818-1.016-3.939-1.26C174.259,131.363,175.706,132.415,176.347,131.754z"/>
				<path d="M125.255,48.084c-0.545,0.589-0.756,0.866-0.699,0.893C125.122,48.374,125.424,48.014,125.255,48.084z"/>
				<path d="M167.76,129.613c0.266,0.147,0.534,0.249,0.809,0.379c1.206,0.07,2.409,0.182,3.838,0.502
					C171.04,129.845,169.451,129.293,167.76,129.613z"/>
				<path d="M78.823,35.079c0.096-0.104,0.193-0.238,0.285-0.329C79.061,34.676,78.957,34.835,78.823,35.079z"/>
				<path d="M92.673,18.119c0.294-0.446,0.824-1.139,1.264-1.828C93.709,16.62,93.33,17.169,92.673,18.119z"/>
				<path d="M212.11,136.134C213.339,136.219,212.312,136.065,212.11,136.134L212.11,136.134z"/>
				<path d="M217.776,139.993c-0.27,0.064-0.479,0.161-0.527,0.345C217.369,140.152,217.551,140.046,217.776,139.993z"/>
				<path d="M154.597,132.716c-0.035-0.009-0.063-0.016-0.104-0.027C154.812,132.95,154.758,132.902,154.597,132.716z"/>
				<path d="M213.916,136.715c-0.45-0.152-0.972-0.296-1.542-0.42C212.62,136.388,213.088,136.521,213.916,136.715z"/>
				<path d="M213.705,136.3c0.419,0.08,0.748,0.143,1.062,0.202C214.934,136.384,214.806,136.281,213.705,136.3z"/>
				<path d="M210.401,135.978c0.701,0.07,1.35,0.188,1.972,0.318c-0.235-0.084-0.331-0.142-0.264-0.161
					C211.75,136.101,211.243,136.055,210.401,135.978z"/>
				<path d="M30.581,124.942c0.04-0.081,0.077-0.175,0.13-0.259C30.697,123.32,30.612,123.896,30.581,124.942z"/>
				<path d="M109.046,71.777c-0.024,0.055-0.022,0.092-0.041,0.143c0.039-0.045,0.086-0.103,0.122-0.144L109.046,71.777z"/>
				<path d="M110.926,67.641c-0.18,2.146-0.852,3.006-1.799,4.135l2.773-0.058c0,0-0.249-1.019-0.498-2.039
					C111.164,68.66,110.926,67.641,110.926,67.641z"/>
				<path d="M110.504,70.31c0,0,0.447-0.633,0.911-1.25c0.459-0.62,0.919-1.24,0.919-1.24c-0.411,0.84-0.815,1.605-1.16,2.247
					c-0.326,0.656-0.592,1.189-0.766,1.539c-0.336,0.704-0.265,0.685,0.596-0.483c-0.128-0.205,0.171-0.962,0.74-1.956
					c0.576-0.989,1.302-2.306,2.168-3.511c1.637-2.491,3.494-4.797,3.31-5.223c0,0,0.347-0.369,0.694-0.739
					c0.337-0.377,0.716-0.717,0.716-0.717c-0.399,0.419-0.406,0.535-0.77,0.976c1.388-1.396,1.813-1.979,2.246-2.765
					c0.224-0.385,0.467-0.803,0.873-1.356c0.414-0.545,1.046-1.171,1.976-2.036c1.318-1.183,2.288-1.941,1.485-1.037l2.807-2.917
					c0.872-0.795,0.764-0.492-0.106,0.3c0,0,1.119-1.068,2.239-2.137c0.573-0.522,1.081-1.102,1.485-1.517
					c0.398-0.42,0.664-0.7,0.664-0.7l-0.014,0.051c0.517-0.727,1.751-2.303,2.359-3.064c1.183-1.038-0.478,0.628-0.118,0.416
					c0,0,0.552-0.651,1.105-1.301c0.529-0.669,1.059-1.338,1.059-1.338c1.088-0.886-0.575,1.411-2.281,3.054
					c2.908-1.668,1.757-2.226,6.813-6.938l-2.085,2.46c0.894-0.597,1.755-1.377,2.697-2.341c0.93-0.973,1.973-2.108,3.317-3.362
					c-0.734,0.522-5.459,4.932-3.218,1.981c0.734-0.743,1.666-1.755,2.814-3.394c0.286,0.213,1.51-1.305,3.043-3.193l0.277,0.439
					c1.589-2.103,1.256-2.103,2.071-3.435c1.919-2.219,2.613-2.442,3.338-2.75c3.068-3.557-2.592,2.082,0.861-2.265
					c2.652-2.878,4.2-5.137,6.842-8.977c1.89-1.974,0.003,0.605,0.762-0.04l1.127-2.177c0.383-0.45,0.388-0.203,0.391-0.08
					c0.565-0.847,0.461-0.981,0.452-1.226c-0.004-0.123,0.014-0.273,0.15-0.555c0.081-0.175,0.295-0.464,0.393-0.702
					c0.114-0.238,0.264-0.528,0.458-0.887c-0.045-0.283,0.208-0.742,0.626-1.357c0.217-0.313,0.465-0.67,0.736-1.062
					c0.138-0.204,0.282-0.425,0.434-0.693c0.075-0.134,0.155-0.294,0.236-0.5l0.064-0.206l0.029-0.108l0.029-0.192l0.016-0.195
					c0.007-0.04-0.01-0.271-0.04-0.399c-0.015-0.076-0.035-0.151-0.058-0.224c-0.023-0.068-0.037-0.128-0.131-0.299
					c-0.157-0.285-0.43-0.551-0.691-0.698c-0.231-0.127-0.524-0.214-0.801-0.23c-0.064-0.005-0.148-0.005-0.192-0.003l-0.087,0.007
					l-0.176,0.024c-0.113,0.019-0.244,0.054-0.335,0.085l-0.156,0.06c-0.243,0.103-0.312,0.15-0.447,0.223
					c-0.203,0.118-0.357,0.22-0.501,0.318c-0.279,0.192-0.524,0.378-0.762,0.567c-0.472,0.376-0.906,0.763-1.318,1.166
					c-0.819,0.806-1.53,1.671-2.011,2.579c-0.816,0.606-0.039-0.657-0.46-0.617c-1.593,2.27-2.24,3.245-2.807,4.14
					c-0.559,0.898-1.021,1.716-2.072,3.737l-2.821,2.637c2.253-1.799,0.593,1.445-0.778,4.324c0.854-0.595,1.583-1.102,2.029-1.474
					l-2.609,4.27c-0.476,0.395-0.426-0.195-0.233-1.073c-0.145,0.316-0.28,0.618-0.376,0.859c-1.332,1.228-1.205,0.17-0.826-1.146
					c0.516-0.371,1.029-0.739,1.528-1.098c0.319-1.304,0.57-2.566,0.008-2.672c-0.122,0.316-0.44,0.86-0.825,1.432
					c0.083-0.342,0.109-0.582-0.053-0.518c-0.178,0.078-0.349,0.604-0.671,1.385l-1.495,0.295l0.146,0.456l-4.54,4.781
					c-2.021,4.334-3.129,8.554-7.026,14.87c0.376-1.988-0.898-1.123-1.662-1.788c2.05-1.027,3.037-4.901,5.54-7.847
					c-1.294,1.543-1.4,0.922-1.219,0.421c0,0-0.845,1.509-1.69,3.018c-0.829,1.519-1.658,3.037-1.658,3.037
					c-0.57-0.597-1.365,0.818-2.707,2.069c2.13-0.153-2.117,4.773-3.294,7.357c-0.568-0.182-0.664-1.064,1.441-3.756
					c-3.249,2.329-1.191,5.09-4.194,7.501c0.464-0.691,0.794-1.009,0.74-1.444c-0.694,1.88-3.721,5.57-3.515,4.361l0.461-0.691
					c-1.659,2.217-4.035,5.699-5.851,8.845c-1.821,3.143-3.08,5.943-2.637,6.707c-0.201-0.06-1.205-1.614-1.288-2.065
					c0,0-0.239,2.784-0.397,5.577c-0.167,2.792-0.241,5.586-0.241,5.586c-0.725-1.448-5.288-0.238-3.552-4.584
					c-0.858,1.032-1.924,2.318-2.923,4.988c0.634-0.691,2.873-0.946,2.359,0.18c-3.033,2.174-1.9,1.604-5.11,4.666
					c0.927-1.058,2.117,1.31,1.081,3.172c-0.14-0.45-2.031-0.835-1.866-1.647c0,0-0.156,1.449-0.266,2.902
					c-0.115,1.453-0.172,2.906-0.172,2.906c0.207-1.369-1.591-1.042-2.682-0.08c0.325-0.201-0.208,0.991-0.785,2.492
					c-0.245,0.779-0.542,1.615-0.732,2.389c-0.16,0.789-0.275,1.485-0.294,1.909c0,0,0.249-0.637,0.497-1.273
					c0.23-0.638,0.546-1.221,0.545-1.221c-0.497,1.663-0.565,3.01-0.335,4.114c0.162,1.098,0.627,1.951,1.073,2.742
					c0.966,1.584,1.936,2.924,3.067,5.704c-0.351-0.238-1.199-0.403-1.844-0.129c-0.321,0.141-0.59,0.401-0.707,0.849
					c-0.059,0.224-0.079,0.496-0.049,0.82c0.045,0.314,0.158,0.671,0.331,1.084c0.891,0.469,2.973,1.308,5.34,1.985
					c2.369,0.718,4.921,1.348,7.132,2.446c0,0,0.077,0.281,0.154,0.561c0.089,0.275,0.177,0.551,0.177,0.551
					s0.886,0.392,1.772,0.785c0.904,0.351,1.808,0.702,1.808,0.702c-1.469,0.13-4.187,0.103-7.026-0.541
					c-2.849-0.59-5.847-1.892-7.757-3.301c0.576,1.183,0.543,1.457,0.66,1.809c0.113,0.365,0.403,0.787,1.75,2.19
					c0.243,0.729-0.288,0.518-0.994-0.007c-0.353-0.261-0.747-0.598-1.104-0.923c-0.349-0.34-0.646-0.694-0.842-0.923
					c0,0,0.087,0.122,0.24,0.335c0.156,0.207,0.364,0.534,0.649,0.86c0.566,0.659,1.296,1.615,2.105,2.411
					c0.4,0.412,0.801,0.824,1.176,1.209c0.389,0.357,0.751,0.69,1.062,0.976c0.624,0.573,1.047,0.938,1.047,0.938
					c0.277-0.684,1.813,0.077,3.342,0.724c0.769,0.315,1.528,0.643,2.121,0.795c0.597,0.14,1.019,0.134,1.103-0.159
					c0,0-0.533-0.191-1.315-0.542c-0.776-0.37-1.843-0.791-2.872-1.354c-0.521-0.272-1.041-0.544-1.529-0.8
					c-0.481-0.286-0.93-0.553-1.315-0.782c-0.386-0.234-0.708-0.429-0.934-0.565c-0.221-0.149-0.348-0.234-0.348-0.234
					c0.316-0.639,2.005-0.456,4.11,0.186c2.123,0.64,4.721,1.637,7.101,3.129c0.994,1.192-2.18,1.681-2.324,2.114
					c0.447,0.004,1.773,0.457,3.017,0.987c1.25,0.513,2.436,1.054,2.597,1.336l-2.535-0.416c2.683,1.967,5.5,0.592,8.478,3.307
					c1.175,0.566,3.01,3.17,3.527,2.432c-1.471-2.287,0.038-7.184,1.722-7.845c0.188,0.126,1.589,1.071,3.099,2.089
					c1.519,1.027,3.161,2.159,3.734,2.754c1.63,1.869-3.953,1.988-2.58,3.583c0.197-0.352,1.467-0.461,1.98-0.464
					c1.198,0.72-0.905,1.021,1.983,1.695c0.885-1.25,5.728,1.771,1.686-0.796c2.877,0.374,2.853,1.139,6.138,1.916
					c-0.792-1.175,3.712-2.366,6.554-2.144c-0.248,0.325,0.264,0.939,0.517,1.223c5.645,1.412,8.587,2.669,13.935,3.669
					c0.429,0.433,2.944,1.312,1.733,1.722c0.818-0.116,1.612-0.477,3.273-0.228c3.003,1.76-3.73-0.437-1.535,1.442
					c0.352-0.777,4.489-0.415,6.933-0.567c-0.531-1.356-5.409-1.108-7.866-1.006c0.304-1.757,4.707-2.853,10.392-2.771
					c4.492,0.258,1.758,1.406,2.562,1.281c8.317,1.506,7.5-1.925,14.271,0.217c2.627,1.409-0.126,2.125,0.393,2.967
					c-3.693-0.032-5.504-1.372-7.968-1.663l2.966,0.911c-1.202,0.206-3.669,0.162-4.949-0.335c2.184,1.315,14.155,2.026,20.571,3.49
					c1.192-0.229,3.22-0.388,2.316-0.89l-2.069-0.066c-1.802-1.026,3.978-0.74,1.418-1.396c2.811-0.3,5.967-0.859,9.797-0.034
					l0.632,1.195c-0.056-0.336-2.475-0.909-3.595-0.669c1.654-0.332,5.818,2.069,7.711,0.758l-2.655-1.018
					c2.811-0.305,6.307-1.151,9.71-0.498c-1.483-1.205-0.801,0.056-3.142-1.428c1.988,1.784-8.75-0.927-5.498,1.081
					c-2.372-1.749-4.271-1.058-7.407-2.726c0.066,0.389,1.086,0.853-1.762,0.346c-0.14,0.097-0.458,0.203-0.66,0.264
					c-0.087-0.023-0.117-0.031-0.191-0.05c0.056,0.022,0.098,0.04,0.154,0.062c-0.129,0.043-0.141,0.054,0.058,0.022
					c0.667,0.245,1.202,0.506,1.407,0.741c-1.506,0.72-6.073,0.196-7.665,0.479c-1.684-0.385,0.758-0.363-0.128-0.887l-2.378,0.421
					c-0.138-0.887-4.353-2.007-0.299-2.017l-3.591-0.495c-2.059-0.767-4.933-1.372-6.77-1.247c-1.664-0.43-4.396,0.381-2.833-0.108
					l-5.688-0.276l-0.019-0.236c-5.496-0.976-11.633-0.301-17.595-3.183c-1.881-0.13-3.846-0.207-6.857-1.122l-0.428-0.937
					c-2.409-0.227-6.823-2.388-8.009-1.804c-0.99-1.393-3.747-2.21-6.729-2.919c-2.99-0.689-6.191-1.336-8.096-2.145l-0.485,0.987
					c-2.689-0.945-5.352-1.549-8.778-2.438l-0.161,0.97c-3.155-0.408-6.947-3.673-10.924-5.936c0.467-0.156,1.402,0.53,2.041,1.112
					c-1.911-2.27-4.467-3.409-6.866-4.76c-2.372-1.309-4.626-2.951-5.175-5.183c-0.468-0.344-0.701-0.73-0.891-1.098
					c-0.198-0.367-0.291-0.735-0.303-1.11c0.037,0.086,0.084,0.157,0.137,0.212c-0.028-0.1-0.084-0.242-0.146-0.386
					c-0.012-0.23-0.024-0.464-0.036-0.705c-0.002-0.238,0.031-0.484,0.029-0.727c-0.05,0.22-0.092,0.44-0.121,0.651
					c-0.008,0.207,0.01,0.401,0.038,0.578c-0.187-0.348-0.347-0.797-0.547-1.291c-0.248-0.485-0.372-1.045-0.603-1.599
					c0,0,0.217-0.146,0.435-0.292c0.236-0.14,0.472-0.28,0.472-0.28c-0.017-0.086-0.019-0.157-0.041-0.247
					c0.288-1.049-0.516-0.883-1.198-0.241c-0.229-0.588-0.35-1.166-0.56-1.635c0.757-0.434,0.797-1.213,0.812-2.101
					c0.126-0.872,0.222-1.854,1.279-2.225c-0.106-0.275-0.064-0.797,0.078-1.493c0.186-0.735,0.475-1.619,0.754-2.512
					c0.556-1.785,1.089-3.6,0.554-4.344c0.212,0.053,0.51-0.297,0.142,0.439c0.948-1.422,1.914-2.826,2.26-4.389l1.365-0.059
					c0,0,0.119-1.005,0.237-2.009c0.132-1.006,0.264-2.012,0.264-2.012c1.756-1.608,2.571-2.202,2.196,0.189
					c1.6-5.378,1.797-4.059,3.109-8.713l0.495,0.579c0.845-1.425,1.459-4.191,2.5-4.715c1.571-1.199,4.088-5.042,7.062-9.468
					c2.966-4.429,6.399-9.433,9.565-13.044c-2.592,0.433,3.196-3.176,2.238-4.326c0.674-0.202,1.625-1.157,1.058,0.34
					c2.426-4.263,4.691-5.638,5.71-9.068c0.649-0.214-0.118,1.21,0.362,0.948c0.151-0.375,0.603-1.48,1.088-1.751
					c0.477-0.264-0.139,0.785-0.434,1.525c2.776-4.131,2.12-5.255,1.43-6.227c1.921-1.719,2.589-2.789,3.121-4.682
					c0.81-0.489,1.965-1.449,0.229,1.12c1.066-1.385,6.731-8.226,6.247-8.838c0.488-0.306,1.54-1.875,1.76-2.286
					c1.233-1.504,1.927-2.296,2.609-3.077c0.34-0.383,0.678-0.765,1.086-1.225c0.201-0.215,0.419-0.447,0.663-0.708
					c0.117-0.118,0.246-0.247,0.352-0.339l0.068-0.06l0.024-0.021l0.001-0.001l0-0.001c-0.001-0.003,0.003,0.005-0.003-0.006
					l-0.042-0.07l-0.157-0.283c-0.045-0.065-0.086-0.133-0.124-0.205c-0.076-0.122-0.131-0.343-0.175-0.412
					c-0.047-0.078-0.036-0.248-0.046-0.255c0.022-0.075,0.01-0.02-0.017-0.029c0-0.002,0.011,0.008,0.03-0.013
					c-0.009,0.001-0.03,0.058,0.02,0.26c0.045,0.112,0.094,0.233,0.146,0.361c0.069,0.16,0.152,0.248,0.274,0.488l0.071,0.124
					l-0.002,0l-0.006-0.002c-0.002-0.005-0.026,0.013-0.039,0.018c-0.129,0.063-0.327,0.211-0.327,0.211
					c0.04-0.184,0.115-0.366,0.165-0.48c0.018-0.036,0.012-0.044,0.021-0.069c-0.006-0.011,0.018,0.002-0.012-0.03
					c-0.038-0.058-0.074-0.118-0.106-0.181c-0.065-0.113-0.115-0.283-0.156-0.373c-0.042-0.074-0.056-0.183-0.055-0.256
					c-0.028-0.02,0.033-0.109,0-0.062c-0.014,0.011-0.007-0.001-0.036,0.013c-0.036,0.019-0.073,0.03-0.111,0.033
					c-0.051-0.006-0.193,0.004-0.328-0.002c-0.124,0-0.273-0.06-0.375-0.062l0.004,0.021c0.008,0.007-0.008,0.06-0.011,0.089
					c-0.014,0.07-0.043,0.161-0.079,0.251c-0.071,0.183-0.17,0.382-0.285,0.589c-0.461,0.824-1.17,1.811-1.897,3.122l-0.033-0.102
					c-0.193,0.206-0.487,0.53-0.725,0.806s-0.451,0.522-0.642,0.744c-0.379,0.446-0.666,0.798-0.891,1.087
					c-0.451,0.578-0.658,0.9-0.864,1.219c-0.412,0.639-0.837,1.254-3.186,3.875l0.584-0.029c0.35,1.104-4.207,4.61-6.406,8.058
					l1.079-1.021c-1.133,1.945-4.717,4.191-6.142,5.896c-0.352,0.34,0.384-0.676,0.756-1.246c-3.936,4.313-0.066,0.92-2.688,4.391
					c-0.698,0.46,0.151-1.212-1.717,1.03c-0.538,0.497-1.694,2.291-3.134,4.261c-1.463,1.945-3.177,4.105-4.646,5.457
					c0.704-0.542,1.418-1.073,0.167,0.514c-1.037,1.143-2.583,2.553-4.057,3.972c-1.463,1.434-2.989,2.724-3.804,3.89
					c-0.313,0.238-0.449,0.309-0.488,0.291c-0.829,0.864-2.172,2.263-3.434,3.579c-0.626,0.674-1.261,1.296-1.727,1.885
					c-0.465,0.59-0.831,1.081-1.022,1.395c-0.542,0.254-1.465,1.063-2.429,2.221c-0.926,1.187-2.058,2.592-2.989,4.045
					c-1.93,2.864-3.454,5.619-3.842,5.347c0,0-0.247,0.39-0.616,0.975c-0.364,0.587-0.818,1.387-1.287,2.179
					c-0.945,1.582-1.825,3.19-1.825,3.19l0.008-0.216c-2.382,4.049-2.929,5.62-3.516,7.169c-0.582,0.91-0.288,0.175-0.292,0.071
					c-3.511,5.84-3.797,6.415-6.386,11.478l-0.652,0.275c-0.308,0.714-1.849,2.611-3.853,4.893
					c-2.072,2.228-4.612,4.808-6.956,7.034c0.013-0.082,0.054-0.237,0.403-0.614c-0.651,0.631-1.362,1.267-2.107,1.897
					c-0.786,0.637-1.658,1.281-2.491,1.916c-1.69,1.245-3.398,2.501-4.983,3.668c-3.159,2.322-5.771,4.315-6.117,6.027l-3.487,3.526
					c5.091-3.881-0.094,1.383,2.194,0.016c-1.849,1.737-5.529,3.535-3.181,1.515l0.455-0.208c0.053-0.834-1.569,0.32-3.28,1.538
					c-1.708,1.225-3.509,2.507-3.712,2.09c-2.524,1.816-5.102,3.515-7.735,4.974c-2.624,1.436-5.328,2.738-7.924,3.423
					c-0.651,0.194-1.274,0.291-1.889,0.403l-0.733,0.064c-0.179,0.023-0.379-0.004-0.563-0.004
					c-0.745-0.039-1.488-0.273-1.951-0.848c-0.473-0.551-0.661-1.266-0.721-1.939c-0.068-0.978,0.003-2.218,0.202-3.462
					c0,0-0.356,0.253-0.711,0.506c-0.357,0.261-0.697,0.537-0.697,0.537c0,0,0.096-0.909,0.266-1.837
					c0.178-0.93,0.412-1.866,0.412-1.866c0.554-0.93,1.254-1.051,0.661,1.521c0.48-0.609,0.576-1.71,0.563-2.727
					c-0.021-1.011-0.165-1.921-0.288-2.001c1.1-2.551,1.308-1.897,1.284-0.849c-0.024,1.055-0.179,2.503,0.067,1.726
					c0,0,0.144-0.539,0.288-1.078c0.156-0.542,0.312-1.083,0.312-1.083l-0.307,0.434c0.098-1.904-0.412-2.272,0.922-5.44
					c1.074-1.914,1.181-0.718,1.557-1.487c0.083,0.041,0.234-0.207,0.557-1.188c0,0,0.547-1.141,1.094-2.282
					c0.565-1.136,1.131-2.272,1.131-2.272l-1.812,1.396c0.491-2.271,2.143-4.316,0.038-2.702c1.571-1.177,3.847-5.376,6.09-9.435
					c2.221-4.066,4.37-8,5.149-8.784c0.99-3.141,2.657-5.847,4.813-9.128c-0.689,0.718-1.956,0.613-0.016-2.181
					c0.63,1.142,1.667-0.037,2.915-1.662c1.241-1.637,2.662-3.792,4.064-4.529c-2.19,1.526,4.892-8.424,1.604-5.919
					c1.655-2.328,0.78,0.291,2.35-1.28c1.428-3.118,3.511-6.227,5.737-9.49c2.207-3.273,4.368-6.821,6.326-10.545
					c-0.152-0.24-1.177,0.79-0.618-0.967l3.235-3.257c0.696-1.516-0.466-2.02,1.729-4.261c-0.38,0.277-0.955,0.687-0.477-0.319
					l1.022-1.583l0.938-1.641c0.617-1.101,1.221-2.213,1.816-3.333c1.191-2.241,2.336-4.521,3.474-6.811
					c0.563-1.147,1.128-2.297,1.693-3.448l1.526-3.566c1.021-2.373,2.044-4.748,3.068-7.124l0.113-0.568l1.79-2.705l-0.108,0.542
					c0.112-0.259,0.223-0.521,0.344-0.723c0.059-0.117,0.112-0.158,0.161-0.247c0.016-0.011,0.022-0.014,0.027-0.028
					c-0.135-0.22-0.296-0.325-0.369-0.515c-0.078-0.253-0.113-0.228-0.103-0.354c0.017-0.082-0.002,0.026-0.01,0.015
					c-0.022,0.036,0.002-0.03-0.06,0.072c-0.048,0.066-0.107,0.117-0.17,0.153c-0.032,0.018-0.065,0.031-0.098,0.042l-0.157,0.103
					c-0.104,0.062-0.228,0.116-0.327,0.147c-0.002,0,0.001-0.033,0.003-0.006c0.02,0.104,0.064,0.329,0.043,0.598
					c-0.035,1.075-0.408,2.349-0.857,3.527c-0.936,2.394-2.317,4.66-3.843,6.791c1.307-1.749,0.611-0.472-0.33,0.925
					c0.65-0.878,0.201,0.176,0.437,0.082c0,0-1.048,1.359-2.179,2.651c-1.114,1.306-2.292,2.559-2.292,2.559
					c-0.54,1.207-5.011,5.454-5.453,6.052c0,0,0.394-0.384,0.787-0.769c0.396-0.38,0.776-0.778,0.776-0.778
					c-1.945,2.212,3.332-2.431,3.328-1.851c1.059-1.277,2.677-2.738,4.401-4.51c1.71-1.767,3.575-3.871,4.629-6.465
					c0.754-0.98-0.355,0.999,0.117,0.515c0.253-0.669,0.564-1.385,0.992-2.289c0.427-0.907,0.963-2.001,1.549-3.533l-0.042,0.374
					c0.244-0.688,0.415-1.387,0.554-2.077c0.11-0.716,0.219-1.387,0.082-2.277c-0.022-0.117-0.041-0.224-0.073-0.347
					c-0.05-0.146-0.108-0.291-0.172-0.432c-0.035-0.113-0.209-0.351-0.363-0.514c-0.122-0.158-0.412-0.354-0.737-0.463
					c-0.322-0.125-0.597-0.093-0.9-0.052c-0.338,0.057-0.414,0.139-0.61,0.229c-0.084,0.046-0.166,0.096-0.244,0.147l-0.149,0.125
					L98.095,2.93c-0.585,0.654-0.818,1.194-1.103,1.746l-0.114,0.573c-0.696,0.923-1.365,1.81-2.039,2.705
					c0.042-0.211,0.083-0.421,0.127-0.642c-1.576,2.853-3.194,5.783-5.561,10.069c0,0,0.202-0.097,0.403-0.194
					c0.196-0.1,0.393-0.199,0.393-0.199c-1.021,1.788-1.421,2.078-2.007,2.861c-0.21,1.221,0.51-0.037,1.249-1.317
					c0.771-1.268,1.395-2.616,1.333-1.452c-1.072,0.989-2.91,4.14-4.631,7.217c-1.74,3.069-3.431,6.038-4.513,6.494
					c-1.568,2.753,1.111-0.449-0.498,2.286l-0.783,0.527l0.03,0.937c-1.153,1.743-2.142,2.389-2.484,2.284
					c0.299-0.411,0.667-1.271,0.926-1.746c-1.836,2.059-3.839,6.562-4.457,7.276l1.816-2.47c-2.104,3.785-4.572,7.913-7.101,11.958
					c-2.604,4.004-5.128,8.009-6.99,11.788l0.652-0.339c-2.904,5.745-3.11,4.086-6.671,10.162l0.069-0.264
					c-0.479,1.391-1.358,3.08-2.448,4.689c0.595-1.75-2.568,2.373-1.713,0.126c-3.124,6.338-1.366,3.255-2.557,7.948l-1.109,0.579
					c-0.307,1.655-0.115,1.921-1.749,5.062c0.976-2.794-2.007,1.458-1.007-1.732c-5.037,5.755-4.139,10.363-7.604,12.437
					c0.041,1.956,1.002,0.615,1.901-0.951c0.899-1.569,1.755-3.37,1.473-2.432c1.284-1.129-0.126,3.126-1.328,5.126
					c-1.073,2.114-3.989,2.539-6.384,8.183c0.243-0.559,0.132-0.651,0.381-1.204c-1.349,1.926-1.148,4.367-2.807,6.791
					c0.518,1.858-1.2,3.543,0.039,4.39c0,0,0.297-1.397,0.666-2.763c0.364-1.368,0.775-2.715,0.775-2.715
					c-0.377,1.562-0.399,3.193-0.562,5.017c-0.147,1.843-0.48,3.824-1.197,6.432c-0.237-0.446-0.374-2.108-0.332-3.231
					c-0.728,1.483-0.287,3.049-0.793,4.73c-0.683-0.274-0.665-2.225-0.257-4.38c0.376-2.179,1.096-4.572,1.125-6.404
					c-0.547,0.708-0.793,2.387-0.969,3.63c-0.181,1.239-0.32,2.062-0.864,0.991c0.643,1.509,0.267,3.027-0.03,4.935
					c-0.143,0.953-0.27,1.999-0.162,3.169c0.084,1.066,0.488,2.721,1.339,3.898c0,0-0.221-0.011-0.441-0.022
					c-0.224-0.019-0.447-0.038-0.447-0.038c0.441,0.916,1.659,2.535,2.955,3.668c0,0-0.756-0.331-1.463-0.826
					c-0.359-0.24-0.704-0.512-0.941-0.741c-0.248-0.221-0.415-0.377-0.415-0.377c0.819,1.067,1.688,1.986,2.625,2.825
					c0.484,0.399,0.985,0.775,1.525,1.094c0.255,0.191,0.545,0.294,0.833,0.414l0.865,0.368c0.583,0.229,1.21,0.359,1.837,0.51
					c0.632,0.115,1.292,0.113,1.95,0.158c0.329,0.034,0.665-0.007,1.001-0.053c0.315-0.04,0.725-0.094,0.945-0.136
					c0.532-0.079,0.988-0.24,1.451-0.422c-0.5,0.132-0.928,0.256-1.371,0.313c-0.245,0.036-0.475,0.069-0.69,0.1
					c-0.244,0.032-0.471,0.061-0.683,0.088c-0.843,0.055-1.428-0.03-1.833-0.058c-0.81-0.068-0.87-0.302-0.76-0.422
					c0.254-0.296,1.108-0.56-0.82-1.124c0.743,0.055,1.407,0.093,2.021,0.013c0.61-0.046,1.155-0.053,1.657-0.169
					c0.45-0.068,0.857-0.13,1.229-0.186c0.327-0.067,0.625-0.118,0.902-0.154c1.128-0.128,1.813-0.15,2.626-0.104
					c1.5-0.003,3.401,0.027,7.471-2.661c-1.045,0.812-4.537,2.065-2.868,0.759c1.706-0.742,3.876-1.788,4.995-2.098
					c5.067-3.704-1.174-0.062,0.772-1.948c2.201-0.502,2.289-2.046,4.253-3.869l0.423,0.547c2.878-1.971,2.996-2.565,3.085-3.058
					c0.082-0.503,0.119-0.919,2.656-2.704l-1.455,2.39l2.335-2.273l-0.05,1.004c2.331-2.733,3.243-3.334,5.917-5.503
					c-0.866,0.216-0.358-1.117,1.885-3.152c1.751-1.134-0.499,1.189,2.614-1.772c-0.49,0.91-0.972,1.976-2.696,2.846
					c-0.019,0.271-0.471,0.922-0.496,1.197c1.901-1.217,4.156-3.761,5.286-4.82c-0.448,0.393-0.989,0.861-1.307,1.053
					c0,0,1.014-1.198,2.028-2.395c1.021-1.179,2.043-2.359,2.043-2.359c0.842-0.504,0.369,0.12-0.093,0.752
					c0.882-0.884,1.369-1.65,2.702-2.863c-0.102,0.615,0.24,0.825-1.523,2.722l4.099-4.359c0.206-0.079,0.861-0.539,1.403-0.903
					c0.556-0.349,0.927-0.675,0.712-0.316c2.54-2.398,5.06-6.793,7.692-10.374c0.084-0.225,0.272-0.657,0.738-1.483
					c2.318-3.478,4.316-6.58,6.254-11.064l1.69-2.219c1.649-3.408-2.239,3.009,0.523-2.66c1.967-4.003,1.124-1.279,1.967-2.595
					c0.422-1.027,0.983-2.448,1.784-3.992c0.397-0.774,0.822-1.605,1.329-2.423c0.517-0.812,1.082-1.636,1.693-2.446
					C111.75,68.374,111.122,69.217,110.504,70.31z M141.104,35.47c-0.524,0.747-1.587,2.234-2.188,2.595
					C139.324,37.044,140.014,36.58,141.104,35.47z M144.45,23.946c0.223-0.675,0.952-1.436,1.875-2.214
					C145.85,22.444,145.243,23.199,144.45,23.946z M198.635,135.233c-0.04,0.011-0.068,0.018-0.101,0.034
					C196.591,134.633,197.278,134.872,198.635,135.233z M202.72,136.177c0.431-0.081,0.417-0.214,0.256-0.368
					c-0.315,0.201-1.246,0.104-2.295-0.099C200.945,135.999,201.46,136.233,202.72,136.177z M40.327,114.294l-0.521,0.641
					C40.283,113.186,40.299,113.74,40.327,114.294z"/>
				<path d="M148.668,17.005c0.249-0.134,0.39-0.116,0.524-0.089C149.327,16.569,149.231,16.487,148.668,17.005z"/>
				<path d="M96.5,95.957l-0.087,0.118c-0.026,0.08-0.031,0.129-0.026,0.162L96.5,95.957z"/>
				<path d="M137.204,132.31c-0.8-0.41-1.212-0.74-1.464-1.024C135.616,131.512,135.933,131.837,137.204,132.31z"/>
				<path d="M224.822,137.113l-2.676-0.047c1.29,0.088,1.732,0.33,2.37,0.534C224.473,137.39,223.99,137.041,224.822,137.113z"/>
				<path d="M247.669,144.069c0.397-0.075,0.832,0.034,1.225-0.043l-0.089-0.367C247.134,143.589,245.949,143.821,247.669,144.069z"
					/>
				<path d="M227.059,140.24c0.154,0.75,1.852,0.642,3.732,0.663c-0.112-0.007-0.219-0.01-0.331-0.028
					C231.085,139.916,229.068,140.081,227.059,140.24z"/>
				<path d="M231.228,140.914c0.579,0.014,1.17,0.041,1.732,0.121C233.206,140.654,232.264,140.896,231.228,140.914z"/>
				<path d="M208.025,136.298c0.86,0.304,0.655-0.93,1.121-0.554C210.232,134.874,203.153,136.23,208.025,136.298z"/>
				<polygon points="228.393,142.756 227.788,141.809 226.681,142.449 				"/>
				<path d="M213.644,140.797l2.969,0.546c-0.031-0.161,0.358-0.218,0.831-0.244C215.602,140.898,213.6,140.513,213.644,140.797z"/>
				<path d="M217.444,141.099c0.958,0.111,1.875,0.169,2.422,0.066C219.346,141.128,218.225,141.06,217.444,141.099z"/>
				<polygon points="224.27,142.708 223.398,142.445 221.286,142.203 				"/>
				<path d="M181.616,136.644l-3.284-0.212c-0.387,0.301,0.463,0.655,1.693,0.701C180.839,137.008,182.062,137.061,181.616,136.644z
					"/>
				<path d="M191.066,140.8c-0.856-0.321-0.886-0.553-1.338-0.949l-0.268,1.236L191.066,140.8z"/>
				<path d="M181.498,139.798c-0.375,0.302-4.898,0.306-0.742,0.842C181.142,140.346,184.457,140.514,181.498,139.798z"/>
				<polygon points="133.451,127.227 134.251,127.478 134.843,125.371 				"/>
				<path d="M96.074,101.007c0.095,2.605,0.527,2.85,0.881,2.999c0.177,0.08,0.346,0.144,0.507,0.468
					c0.081,0.162,0.16,0.388,0.239,0.715c0.069,0.333,0.163,0.753,0.306,1.295c0.456,0.441,0.183-0.424,0.058-1.326
					c-0.132-0.904-0.25-1.78,0.103-1.271c-0.339-0.659-0.478-1.293-0.634-1.81c-0.142-0.521-0.273-0.937-0.371-1.222
					C96.977,100.29,96.709,100.234,96.074,101.007z"/>
				<path d="M98.167,103.887c0.199,0.427,0.424,0.871,0.691,1.323C98.511,104.457,98.314,104.101,98.167,103.887z"/>
				<path d="M86.67,24.863l-1.766,1.74c0,0,0.3-0.265,0.6-0.53c0.295-0.27,0.591-0.539,0.591-0.539L86.67,24.863z"/>
				<path d="M83.447,28.408l-0.533,0.279l-1.009,1.125C82.316,29.423,83.109,28.669,83.447,28.408z"/>
				<path d="M146.433,30.808l0.033-0.222c-0.349,0.217-0.739,0.66-1.538,1.533L146.433,30.808z"/>
				<polygon points="122.493,55.166 122.908,54.779 121.889,55.263 				"/>
				<path d="M107.027,78.251c0.548-1.019,1.116-2.245,1.672-3.261C107.579,77.234,106.462,78.297,107.027,78.251z"/>
			</g>
		</g>
	</g>
</g>
</svg>
